<svg width="30" height="30" viewBox="0 0 30 30" fill="none" xmlns="http://www.w3.org/2000/svg">
<path d="M6.99058 8.41672C8.5397 5.58427 9.31426 4.16804 10.5 4.16804C11.6857 4.16804 12.4603 5.58427 14.0094 8.41672L14.3573 9.0527C14.6364 9.56312 14.776 9.81832 14.9788 10.0212C15.1817 10.224 15.4369 10.3636 15.9473 10.6428L16.5833 10.9906C19.4157 12.5397 20.832 13.3143 20.832 14.5C20.832 15.6857 19.4157 16.4603 16.5833 18.0094L15.9473 18.3573C15.4369 18.6364 15.1817 18.776 14.9788 18.9788C14.776 19.1817 14.6364 19.4369 14.3572 19.9473L14.0094 20.5833C12.4603 23.4157 11.6857 24.832 10.5 24.832C9.31426 24.832 8.5397 23.4157 6.99058 20.5833L6.64275 19.9473C6.36359 19.4369 6.22402 19.1817 6.02117 18.9788C5.81832 18.776 5.56312 18.6364 5.0527 18.3572L4.41672 18.0094C1.58427 16.4603 0.168043 15.6857 0.168043 14.5C0.168043 13.3143 1.58427 12.5397 4.41672 10.9906L5.0527 10.6428C5.56312 10.3636 5.81832 10.224 6.02117 10.0212C6.22402 9.81832 6.36359 9.56312 6.64275 9.0527L6.99058 8.41672Z" fill="#080330"/>
<path d="M22.781 5.22876C23.2322 4.40382 23.4578 3.99134 23.7775 3.89878C23.9229 3.8567 24.0771 3.8567 24.2225 3.89878C24.5422 3.99134 24.7678 4.40382 25.219 5.22876C25.3011 5.37902 25.3422 5.45414 25.3972 5.51803C25.4233 5.54838 25.4516 5.57673 25.482 5.60283C25.5459 5.65778 25.621 5.69887 25.7712 5.78105C26.5962 6.23223 27.0087 6.45782 27.1012 6.77751C27.1433 6.92285 27.1433 7.07715 27.1012 7.22249C27.0087 7.54218 26.5962 7.76777 25.7712 8.21895C25.621 8.30113 25.5459 8.34222 25.482 8.39717C25.4516 8.42327 25.4233 8.45162 25.3972 8.48197C25.3422 8.54586 25.3011 8.62098 25.219 8.77124C24.7678 9.59618 24.5422 10.0087 24.2225 10.1012C24.0771 10.1433 23.9229 10.1433 23.7775 10.1012C23.4578 10.0087 23.2322 9.59618 22.781 8.77124C22.6989 8.62098 22.6578 8.54586 22.6028 8.48197C22.5767 8.45162 22.5484 8.42327 22.518 8.39717C22.4541 8.34222 22.379 8.30113 22.2288 8.21895C21.4038 7.76777 20.9913 7.54218 20.8988 7.22249C20.8567 7.07715 20.8567 6.92285 20.8988 6.77751C20.9913 6.45782 21.4038 6.23223 22.2288 5.78105C22.379 5.69887 22.4541 5.65778 22.518 5.60283C22.5484 5.57673 22.5767 5.54838 22.6028 5.51803C22.6578 5.45414 22.6989 5.37902 22.781 5.22876Z" fill="#080330"/>
<path d="M22.7453 20.2084C23.5198 18.7921 23.9071 18.084 24.5 18.084C25.0929 18.084 25.4802 18.7921 26.2547 20.2084L26.517 20.688C26.6566 20.9432 26.7264 21.0708 26.8278 21.1722C26.9292 21.2736 27.0568 21.3434 27.312 21.483L27.7916 21.7453C29.2079 22.5198 29.916 22.9071 29.916 23.5C29.916 24.0929 29.2079 24.4802 27.7916 25.2547L27.312 25.517C27.0568 25.6566 26.9292 25.7264 26.8278 25.8278C26.7264 25.9292 26.6566 26.0568 26.517 26.312L26.2547 26.7916C25.4802 28.2079 25.0929 28.916 24.5 28.916C23.9071 28.916 23.5198 28.2079 22.7453 26.7916L22.483 26.312C22.3434 26.0568 22.2736 25.9292 22.1722 25.8278C22.0708 25.7264 21.9432 25.6566 21.688 25.517L21.2084 25.2547C19.7921 24.4802 19.084 24.0929 19.084 23.5C19.084 22.9071 19.7921 22.5198 21.2084 21.7453L21.688 21.483C21.9432 21.3434 22.0708 21.2736 22.1722 21.1722C22.2736 21.0708 22.3434 20.9432 22.483 20.688L22.7453 20.2084Z" fill="#080330"/>
</svg>
