<svg width="1591" height="1591" viewBox="0 0 1591 1591" fill="none" xmlns="http://www.w3.org/2000/svg">
<path d="M464.042 1126.96H928.083V994.375H464.042V1126.96ZM464.042 861.792H1126.96V729.208H464.042V861.792ZM464.042 596.625H1126.96V464.042H464.042V596.625ZM331.458 1392.12C294.998 1392.12 263.786 1379.14 237.821 1353.18C211.857 1327.21 198.875 1296 198.875 1259.54V331.458C198.875 294.998 211.857 263.786 237.821 237.821C263.786 211.857 294.998 198.875 331.458 198.875H1259.54C1296 198.875 1327.21 211.857 1353.18 237.821C1379.14 263.786 1392.12 294.998 1392.12 331.458V1259.54C1392.12 1296 1379.14 1327.21 1353.18 1353.18C1327.21 1379.14 1296 1392.12 1259.54 1392.12H331.458ZM331.458 1259.54H1259.54V331.458H331.458V1259.54Z" fill="#1F1F1F"/>
</svg>
