<svg width="21" height="17" viewBox="0 0 21 17" fill="none" xmlns="http://www.w3.org/2000/svg">
<g clip-path="url(#clip0_775_1861)">
<path d="M18.23 9.98999C17.79 9.77999 17.31 9.64999 16.81 9.59999C17.44 9.46999 17.96 9.02999 18.23 8.43999C18.35 8.16999 18.42 7.86999 18.42 7.54999C18.42 7.22999 18.35 6.93999 18.23 6.66999C17.9 5.93999 17.2 5.43999 16.39 5.43999C15.26 5.43999 14.34 6.37999 14.34 7.54999C14.34 7.80999 14.39 8.08999 14.5 8.31999C14.63 8.42999 14.75 8.52999 14.88 8.66999C14.89 8.64999 14.9 8.65999 14.91 8.68999C14.91 8.68999 14.9167 8.69666 14.93 8.70999C15.03 8.77999 15.11 8.86999 15.19 8.95999C15.21 8.96999 15.22 8.96999 15.21 8.97999C15.3 9.05999 15.37 9.13999 15.42 9.21999C15.44 9.22999 15.45 9.22999 15.44 9.23999C15.48 9.25999 15.49 9.26999 15.49 9.28999C15.51 9.28999 15.49 9.29999 15.49 9.29999C15.58 9.37999 15.64 9.44999 15.7 9.52999C15.74 9.54999 15.75 9.59999 15.78 9.62999C15.86 9.72999 15.94 9.83999 16.01 9.93999C16.07 10.02 16.11 10.1 16.16 10.18C16.26 10.32 16.35 10.48 16.44 10.64C16.5 10.75 16.56 10.88 16.62 11C16.78 11.33 16.91 11.67 17.02 12.02C17.07 12.19 17.12 12.37 17.17 12.55C17.24 12.91 17.31 13.28 17.34 13.66V13.75H17.37L17.45 14.72H16.48L16.37 13.75H16.39C16.35 13.27 16.25 12.8 16.1 12.36C16.06 12.2 16.01 12.06 15.95 11.91C15.9 11.78 15.84 11.65 15.79 11.52C15.74 11.4 15.68 11.29 15.61 11.17C15.57 11.08 15.52 11 15.46 10.91C15.45 10.89 15.44 10.86 15.42 10.84C15.37 10.74 15.31 10.65 15.24 10.56C15.19 10.46 15.12 10.37 15.05 10.29C15.04 10.28 15.04 10.27 15.03 10.26C14.93 10.14 14.83 10.02 14.73 9.90999C13.7 8.71999 12.25 7.92999 10.62 7.77999C11.95 7.48999 12.95 6.27999 12.95 4.81999C12.95 3.48999 12.11 2.34999 10.94 1.94999C10.65 1.84999 10.34 1.78999 10.02 1.78999C9.7 1.78999 9.38 1.84999 9.09 1.94999C7.92 2.34999 7.08 3.48999 7.08 4.81999C7.08 6.27999 8.08 7.48999 9.42 7.77999C8.2 7.88999 7.07 8.36999 6.14 9.09999C6.13 9.09999 6.12 9.10999 6.11 9.11999C5.97 9.22999 5.83 9.34999 5.7 9.47999C5.55 9.60999 5.41 9.75999 5.29 9.90999C5.22 9.97999 5.15 10.06 5.08 10.15C5.06 10.17 5.04 10.2 5.03 10.23C4.93 10.35 4.84 10.48 4.75 10.62C4.68 10.72 4.61 10.84 4.54 10.96C4.43 11.12 4.34 11.3 4.27 11.47C4.21 11.59 4.15 11.71 4.11 11.83C4.1 11.84 4.09 11.86 4.1 11.87C4.05 12 4 12.13 3.96 12.27C3.91 12.4 3.87 12.53 3.84 12.67C3.81 12.77 3.79 12.85 3.78 12.95C3.76 12.98 3.76 13.01 3.76 13.04C3.74 13.16 3.72 13.27 3.7 13.39C3.67 13.51 3.66 13.63 3.65 13.75H3.66L3.57 14.58C3.23 14.47 2.91 14.26 2.66 14.01L2.68 13.75V13.66C2.72 13.28 2.79 12.91 2.88 12.55C2.91 12.37 2.96 12.19 3.02 12.02C3.05 11.92 3.08 11.83 3.11 11.74C3.12 11.72 3.13 11.69 3.14 11.66C3.18 11.55 3.22 11.44 3.26 11.35C3.32 11.2 3.39 11.05 3.46 10.91C3.51 10.82 3.56 10.72 3.61 10.64C3.69 10.48 3.78 10.32 3.88 10.17C3.97 10.02 4.08 9.87999 4.19 9.72999C4.21 9.69999 4.23 9.65999 4.26 9.62999C4.35 9.51999 4.45 9.39999 4.55 9.28999C4.59 9.22999 4.64 9.18999 4.69 9.12999C4.73 9.07999 4.78 9.01999 4.83 8.96999C4.92 8.86999 5.02 8.77999 5.11 8.69999C5.21 8.59999 5.31 8.51999 5.41 8.43999C5.45 8.39999 5.48 8.36999 5.52 8.33999C5.62 8.09999 5.68 7.81999 5.68 7.54999C5.68 6.37999 4.76 5.43999 3.63 5.43999C2.93 5.43999 2.31 5.80999 1.94 6.36999C1.73 6.70999 1.6 7.10999 1.6 7.54999C1.6 7.98999 1.73 8.36999 1.94 8.69999C2.23 9.15999 2.69 9.48999 3.23 9.59999C2.77 9.63999 2.34 9.75999 1.94 9.92999C1.15 10.27 0.47 10.83 0 11.54V12.29C0 12.8 0.08 13.29 0.25 13.75C0.37 14.1 0.53 14.42 0.74 14.72C1.52 15.9 2.87 16.68 4.38 16.68H20.17V11.77C19.71 11 19.03 10.37 18.23 9.98999Z" fill="black"/>
<path d="M15.78 0H0V10.04C0.34 9.73 0.72 9.46 1.12 9.23C0.8 8.75 0.63 8.16 0.63 7.55C0.63 6.49 1.14 5.56 1.94 5V1.95H7.29C7.99 1.25 8.97 0.82 10.02 0.82C11.07 0.82 12.04 1.25 12.74 1.95H15.78C17.14 1.95 18.23 3.05 18.23 4.39V5.12C18.94 5.68 19.39 6.56 19.39 7.55C19.39 8.16 19.21 8.75 18.9 9.23C19.37 9.49 19.8 9.82 20.17 10.21V4.39C20.17 1.97 18.22 0 15.78 0Z" fill="black"/>
</g>
<defs>
<clipPath id="clip0_775_1861">
<rect width="20.17" height="16.68" fill="white"/>
</clipPath>
</defs>
</svg>
