<svg width="1110" height="1110" viewBox="0 0 1110 1110" fill="none" xmlns="http://www.w3.org/2000/svg">
<path d="M231.25 925H878.75V832.5H231.25V925ZM383.875 740H726.125L699.531 555H410.469L383.875 740ZM138.75 1017.5V832.5C138.75 807.062 147.807 785.286 165.922 767.172C184.036 749.057 205.812 740 231.25 740H291.375L316.812 555H185V462.5H925V555H793.188L818.625 740H878.75C904.188 740 925.964 749.057 944.078 767.172C962.193 785.286 971.25 807.062 971.25 832.5V1017.5H138.75ZM313.344 462.5L231.25 92.5C256.688 111.771 282.896 129.885 309.875 146.844C336.854 163.802 366.531 172.281 398.906 172.281C429.74 172.281 458.068 164.38 483.891 148.578C509.714 132.776 533.417 114.083 555 92.5C576.583 114.083 600.286 132.776 626.109 148.578C651.932 164.38 680.26 172.281 711.094 172.281C743.469 172.281 773.146 163.802 800.125 146.844C827.104 129.885 853.312 111.771 878.75 92.5L796.656 462.5H701.844L746.938 262.469L738.266 263.625C732.484 264.396 723.427 264.781 711.094 264.781C683.344 264.781 656.172 260.542 629.578 252.062C602.984 243.583 578.125 231.635 555 216.219C532.646 231.635 508.557 243.583 482.734 252.062C456.911 260.542 430.51 264.781 403.531 264.781C389.656 264.781 379.443 264.396 372.891 263.625L363.062 262.469L408.156 462.5H313.344Z" fill="#1F1F1F"/>
</svg>
