<svg width="22" height="20" viewBox="0 0 22 20" fill="none" xmlns="http://www.w3.org/2000/svg">
<path d="M16.9539 0H5.90132C2.84922 0 0.375 2.48731 0.375 5.55556V10.5556C0.375 11.476 1.11726 12.2222 2.03289 12.2222H3.69079V11.6667C3.69079 10.7462 2.94852 10 2.03289 10H3.69079V6.66667H14.7434C15.3129 6.66667 15.8623 6.75327 16.3793 6.91409C16.7471 6.17016 16.9539 5.33159 16.9539 4.44444V0Z" fill="black"/>
<path fill-rule="evenodd" clip-rule="evenodd" d="M4.79605 7.77778H15.8487C18.9008 7.77778 21.375 10.2651 21.375 13.3333V18.3333C21.375 19.2538 20.6327 20 19.7171 20H18.0592V19.4444C18.0592 18.524 18.8015 17.7778 19.7171 17.7778H10.3224C7.27027 17.7778 4.79605 15.2905 4.79605 12.2222V7.77778ZM10.3224 12.2222C10.3224 12.8359 9.82753 13.3333 9.2171 13.3333C8.60668 13.3333 8.11184 12.8359 8.11184 12.2222C8.11184 11.6086 8.60668 11.1111 9.2171 11.1111C9.82753 11.1111 10.3224 11.6086 10.3224 12.2222ZM13.6382 12.2222C13.6382 12.8359 13.1433 13.3333 12.5329 13.3333C11.9225 13.3333 11.4276 12.8359 11.4276 12.2222C11.4276 11.6086 11.9225 11.1111 12.5329 11.1111C13.1433 11.1111 13.6382 11.6086 13.6382 12.2222ZM15.8487 13.3333C16.4591 13.3333 16.9539 12.8359 16.9539 12.2222C16.9539 11.6086 16.4591 11.1111 15.8487 11.1111C15.2383 11.1111 14.7434 11.6086 14.7434 12.2222C14.7434 12.8359 15.2383 13.3333 15.8487 13.3333Z" fill="black"/>
</svg>
