<svg width="320" height="320" viewBox="0 0 320 320" fill="none" xmlns="http://www.w3.org/2000/svg">
<path d="M0 40C0 17.9086 17.9086 0 40 0H106C128.091 0 146 17.9086 146 40V280C146 302.091 128.091 320 106 320H40C17.9086 320 0 302.091 0 280V40Z" fill="#94B704"/>
<path d="M174 40C174 17.9086 191.909 0 214 0H280C302.091 0 320 17.9086 320 40V106C320 128.091 302.091 146 280 146H214C191.909 146 174 128.091 174 106V40Z" fill="#94B704"/>
<path fill-rule="evenodd" clip-rule="evenodd" d="M214 174C191.909 174 174 191.909 174 214V280C174 302.091 191.909 320 214 320H280C302.091 320 320 302.091 320 280V214C320 191.909 302.091 174 280 174H214ZM232.082 214C222.096 214 214 222.096 214 232.082V261.918C214 271.904 222.096 280 232.082 280H261.918C271.904 280 280 271.904 280 261.918V232.082C280 222.096 271.904 214 261.918 214H232.082Z" fill="#94B704"/>
</svg>
