<svg width="119" height="113" viewBox="0 0 119 113" fill="none" xmlns="http://www.w3.org/2000/svg">
<path fill-rule="evenodd" clip-rule="evenodd" d="M119 0H0V113H119V0ZM20.8734 16.2236C20.9068 16.1937 20.9413 16.1639 20.9767 16.134C21.2346 15.9165 21.4414 15.699 21.5972 15.4815C22.54 14.705 23.4828 14.8677 24.4257 15.9696C25.5319 17.2624 26.638 17.2624 27.7442 15.9696C28.8504 14.6768 29.9566 14.6768 31.0627 15.9696C32.1689 17.2624 33.2751 17.2624 34.3813 15.9696C35.4875 14.6768 36.5936 14.6768 37.6998 15.9696C38.806 17.2624 39.9122 17.2624 41.0184 15.9696C42.1245 14.6768 43.2307 14.6768 44.3369 15.9696C45.4431 17.2624 46.5493 17.2624 47.6554 15.9696C48.7616 14.6768 49.8678 14.6768 50.974 15.9696C52.0802 17.2624 53.1863 17.2624 54.2925 15.9696C55.3987 14.6768 56.5049 14.6768 57.611 15.9696C58.7172 17.2624 59.8234 17.2624 60.9296 15.9696C62.0358 14.6768 63.1419 14.6768 64.2481 15.9696C65.3543 17.2624 66.4605 17.2624 67.5667 15.9696C68.6728 14.6768 69.779 14.6768 70.8852 15.9696C71.9914 17.2624 73.0976 17.2624 74.2037 15.9696C75.3099 14.6768 76.4161 14.6768 77.5223 15.9696C78.6285 17.2624 79.7346 17.2624 80.8408 15.9696C81.947 14.6768 83.0532 14.6768 84.1593 15.9696C85.2655 17.2624 86.3717 17.2624 87.4779 15.9696C88.5841 14.6768 89.6902 14.6768 90.7964 15.9696C91.9026 17.2624 93.0088 17.2624 94.115 15.9696C95.2211 14.6768 96.3273 14.6768 97.4335 15.9696C97.4754 16.0186 97.5173 16.0657 97.5592 16.1109C97.6891 16.2623 97.8439 16.4136 98.0234 16.565C99.3256 17.6632 99.3256 18.7614 98.0234 19.8596C96.7212 20.9578 96.7212 22.056 98.0234 23.1542C99.3256 24.2525 99.3256 25.3507 98.0234 26.4489C96.7212 27.5471 96.7212 28.6453 98.0234 29.7435C99.3256 30.8417 99.3256 31.9399 98.0234 33.0381C96.7212 34.1364 96.7212 35.2346 98.0234 36.3328C99.3256 37.431 99.3256 38.5292 98.0234 39.6274C96.7212 40.7256 96.7212 41.8238 98.0234 42.922C99.3256 44.0202 99.3256 45.1185 98.0234 46.2167C96.7212 47.3149 96.7212 48.4131 98.0234 49.5113C99.3256 50.6095 99.3256 51.7077 98.0234 52.806C96.7212 53.9042 96.7212 55.0024 98.0234 56.1006C99.3256 57.1988 99.3256 58.297 98.0234 59.3952C96.7212 60.4934 96.7212 61.5916 98.0234 62.6898C99.3256 63.788 99.3256 64.8863 98.0234 65.9845C96.7212 67.0827 96.7212 68.1809 98.0234 69.2791C99.3256 70.3773 99.3256 71.4755 98.0234 72.5737C96.7212 73.6719 96.7212 74.7702 98.0234 75.8684C99.3256 76.9666 99.3256 78.0648 98.0234 79.163C96.7212 80.2612 96.7212 81.3594 98.0234 82.4576C99.3256 83.5558 99.3256 84.654 98.0234 85.7523C96.7212 86.8505 96.7212 87.9487 98.0233 89.0469C98.8222 89.7206 98.6164 90.447 98.1319 91.1685C97.8659 91.5646 97.8534 91.5771 97.7673 91.6633C97.713 91.7178 97.6292 91.8017 97.4335 92.0304C96.3273 93.3232 95.2211 93.3232 94.115 92.0304C93.0088 90.7376 91.9026 90.7376 90.7964 92.0304C89.6902 93.3232 88.5841 93.3232 87.4779 92.0304C86.3717 90.7376 85.2655 90.7376 84.1593 92.0304C83.0532 93.3232 81.947 93.3232 80.8408 92.0304C79.7346 90.7376 78.6285 90.7376 77.5223 92.0304C76.4161 93.3232 75.3099 93.3232 74.2037 92.0304C73.0976 90.7376 71.9914 90.7376 70.8852 92.0304C69.779 93.3232 68.6728 93.3232 67.5667 92.0304C66.4605 90.7376 65.3543 90.7376 64.2481 92.0304C63.1419 93.3232 62.0358 93.3232 60.9296 92.0304C59.8234 90.7376 58.7172 90.7376 57.611 92.0304C56.5049 93.3232 55.3987 93.3232 54.2925 92.0304C53.1863 90.7376 52.0802 90.7376 50.974 92.0304C49.8678 93.3232 48.7616 93.3232 47.6554 92.0304C46.5493 90.7376 45.4431 90.7376 44.3369 92.0304C43.2307 93.3232 42.1245 93.3232 41.0184 92.0304C39.9122 90.7376 38.806 90.7376 37.6998 92.0304C36.5936 93.3232 35.4875 93.3232 34.3813 92.0304C33.2751 90.7376 32.1689 90.7376 31.0627 92.0304C29.9566 93.3232 28.8504 93.3232 27.7442 92.0304C26.638 90.7376 25.5319 90.7376 24.4257 92.0304C23.45 93.1707 22.4743 93.3052 21.4987 92.434C21.3829 92.2908 21.245 92.1477 21.0849 92.0046C20.8969 91.7877 20.7088 91.6083 20.5207 91.4661C19.6981 90.5161 19.8501 89.566 20.9767 88.616C22.2789 87.5178 22.2789 86.4195 20.9767 85.3213C19.6745 84.2231 19.6745 83.1249 20.9767 82.0267C22.2789 80.9285 22.2789 79.8303 20.9767 78.7321C19.6745 77.6339 19.6745 76.5356 20.9767 75.4374C22.2789 74.3392 22.2789 73.241 20.9767 72.1428C19.6745 71.0446 19.6745 69.9464 20.9767 68.8482C22.2789 67.7499 22.2789 66.6517 20.9767 65.5535C19.6745 64.4553 19.6745 63.3571 20.9767 62.2589C22.2789 61.1607 22.2789 60.0625 20.9767 58.9643C19.6745 57.8661 19.6745 56.7678 20.9767 55.6696C22.2789 54.5714 22.2789 53.4732 20.9767 52.375C19.6745 51.2768 19.6745 50.1786 20.9767 49.0804C22.2788 47.9821 22.2788 46.8839 20.9767 45.7857C19.6744 44.6875 19.6744 43.5893 20.9767 42.4911C22.2788 41.3929 22.2788 40.2947 20.9767 39.1965C19.6744 38.0983 19.6744 37 20.9767 35.9018C22.2788 34.8036 22.2788 33.7054 20.9767 32.6072C19.6744 31.509 19.6744 30.4108 20.9767 29.3126C22.2788 28.2144 22.2788 27.1161 20.9767 26.0179C19.6744 24.9197 19.6744 23.8215 20.9767 22.7233C22.2788 21.6251 22.2788 20.5269 20.9767 19.4287C19.7754 18.4156 19.6823 17.4026 20.6972 16.3895C20.7559 16.3379 20.8146 16.2826 20.8734 16.2236Z" fill="#E5DFAA"/>
</svg>
