<svg width="152" height="125" viewBox="0 0 152 125" fill="none" xmlns="http://www.w3.org/2000/svg">
<path fill-rule="evenodd" clip-rule="evenodd" d="M0 0H152V124.5H0V0ZM28.24 38.463C26.4952 38.4671 24.7505 38.4738 23.0058 38.4827C23.004 38.9107 23.0025 39.3386 23.0015 39.7666L23.0003 40.2969C22.9609 49.4203 26.2865 58.5328 31.9704 65.6331C32.0879 65.7762 32.2051 65.9195 32.322 66.063C32.9937 66.914 33.6872 67.7197 34.4501 68.4898L34.8006 68.8385C35.709 69.7467 36.6266 70.636 37.6166 71.4548L37.9874 71.7562C38.2911 72.0082 38.5957 72.258 38.9055 72.5025L39.2463 72.7684C41.5135 74.5753 43.9737 76.0535 46.5905 77.2925L46.926 77.4494C51.0477 79.3822 55.3855 80.5046 59.8904 81.071C60.1333 81.1012 60.3762 81.132 60.619 81.1633C61.0686 81.2218 61.5184 81.279 61.9685 81.3339L62.2852 81.3714C62.0325 81.6482 62.0324 81.6482 61.6435 81.8449C59.9979 82.7334 58.3884 83.7126 57.0606 85.0483C54.5077 87.7058 53.1431 90.6745 53.1808 94.369C53.1829 94.5627 53.1842 94.7564 53.1849 94.9501C53.1859 95.462 53.1881 95.9738 53.1923 96.4857C53.1966 97.0145 53.1992 97.5433 53.2012 98.0721C53.2052 99.2106 53.2119 100.349 53.2207 101.487C53.59 101.489 53.9593 101.491 54.3286 101.492L54.7861 101.493C55.3555 101.496 55.9247 101.497 56.494 101.487C61.7701 101.221 68.1506 99.3166 71.8573 95.3123L72.1051 95.0351C72.7797 94.3369 73.3492 93.6302 73.8598 92.8052C74.0243 92.5301 74.1911 92.2643 74.3712 91.9987H74.623C75.8485 94.6922 78.517 96.8554 81.0677 98.2041L81.2955 98.3245C85.1098 100.406 89.4582 101.514 93.8021 101.5L94.2352 101.496C94.748 101.494 95.2608 101.492 95.7735 101.487C95.7842 100.445 95.7928 99.4029 95.7981 98.3606L95.7988 98.2216C95.801 97.7335 95.8033 97.2454 95.8081 96.7573C95.8137 96.2369 95.8186 95.7166 95.8205 95.1962C95.821 94.9952 95.8218 94.7942 95.8227 94.5933C95.8446 93.0439 95.7236 91.5919 95.2699 90.101C93.8505 86.1963 90.6487 83.5526 87.069 81.6837L86.709 81.4979C86.9994 81.3252 87.2161 81.2445 87.5534 81.2014C95.7608 80.7864 103.856 77.4719 110.285 72.3834C110.442 72.2585 110.598 72.1337 110.755 72.0093C111.836 71.1887 112.779 70.2564 113.733 69.2914C121.19 61.6828 126.073 51.4213 125.999 40.6002C125.998 40.4216 125.997 40.2431 125.996 40.0645C125.995 39.5372 125.992 39.01 125.989 38.4827C124.405 38.4746 122.821 38.4682 121.238 38.4642L121.029 38.4637C120.287 38.4619 119.544 38.4602 118.802 38.4566C118.011 38.4524 117.221 38.4487 116.43 38.4473C116.124 38.4469 115.819 38.4463 115.514 38.4456C112.668 38.4256 109.853 38.588 107.052 39.1268L106.608 39.2181C102.848 39.9762 99.2913 41.2354 95.8699 42.9841L95.5217 43.1638C93.1733 44.3683 90.9366 45.8347 88.8861 47.5004C88.7482 47.6155 88.61 47.7303 88.4716 47.8448C87.6276 48.5183 86.8274 49.2124 86.0632 49.9768L85.7176 50.3277C84.7229 51.3331 83.7515 52.3517 82.8559 53.4481L82.6804 53.6645C78.9022 58.2856 76.2769 63.589 74.6935 69.3461L74.623 69.6055L74.3712 69.479C74.2893 69.2283 74.2092 68.9768 74.1383 68.7227C72.7019 63.4846 70.1552 58.5292 66.8121 54.2635C66.6878 54.1062 66.5637 53.9487 66.4398 53.7911C64.7157 51.498 62.5089 49.4433 60.2812 47.6467L59.8932 47.3388C54.933 43.362 49.0508 40.5746 42.8252 39.2994L42.3386 39.2022C39.5615 38.6379 36.7463 38.4235 33.9169 38.4426C33.6204 38.4446 33.324 38.446 33.0275 38.4467C32.2422 38.4476 31.4569 38.4499 30.6716 38.4541C29.8611 38.4584 29.0505 38.4611 28.24 38.463ZM79.1782 34.0062L78.9035 33.9281C76.7491 33.3103 74.4604 33.2282 72.2374 33.4779L71.8533 33.5486C69.3114 34.0074 66.9175 34.9296 64.8346 36.4886L64.5514 36.7115C62.5229 38.261 60.9395 40.1975 59.8932 42.5312C60.8127 43.1486 61.6771 43.8252 62.5365 44.5228C62.7044 44.6604 62.8724 44.7978 63.0406 44.935C63.8979 45.6167 64.7039 46.3233 65.4764 47.1013L65.8261 47.4574C67.1316 48.7702 68.3685 50.133 69.5458 51.5629L69.7131 51.7668C71.4308 53.8553 72.9996 56.2022 74.203 58.6278L74.3712 58.9782H74.623C75.8801 56.4027 77.4956 53.9031 79.3205 51.6956C79.5177 51.4667 79.7143 51.2373 79.9107 51.0077C80.6686 50.0514 81.4572 49.16 82.3199 48.3L82.5151 48.1058C83.468 47.1526 84.425 46.2112 85.4658 45.3541L85.8278 45.0615C86.7634 44.2858 87.7326 43.5564 88.7047 42.8277L89.1011 42.5312C88.4053 40.6353 86.9397 38.8226 85.4314 37.516L85.0724 37.2175C83.35 35.7419 81.3531 34.6496 79.1782 34.0062ZM45.3041 19.5016C45.0054 19.5025 44.7067 19.5037 44.408 19.5054C44.4 20.878 44.3936 22.2507 44.3896 23.6233L44.3891 23.8045C44.3874 24.4482 44.3857 25.0919 44.3821 25.7356C44.3639 28.6859 44.1457 31.7856 44.7857 34.6872C44.9088 35.2048 44.9679 35.7016 45.4335 35.9976C46.0523 36.0921 46.6482 36.2265 47.2438 36.4205L47.4905 36.5024C50.0645 37.3436 52.5447 38.2776 54.9361 39.566C55.4899 39.8742 55.979 40.1814 56.6199 40.2539C57.7308 38.2845 59.0851 36.375 60.7838 34.8805L61.1522 34.5607C62.6608 33.1848 64.2896 32.0723 66.1723 31.2713C66.6824 31.0642 67.1474 30.8732 67.5729 30.5122C67.462 30.3554 67.3486 30.2003 67.2345 30.0457C62.7375 24.2561 55.3351 20.657 48.2134 19.7069L47.8072 19.6556C47.0555 19.5597 46.3159 19.4982 45.5574 19.5L45.3041 19.5016ZM103.698 19.5029L103.435 19.5023C95.5617 19.4631 87.9033 23.2962 82.5211 28.92L82.2633 29.1917L82.0142 29.452L81.7848 29.6983C81.4974 30.0047 81.3697 30.2221 81.2955 30.6387C83.1581 31.3245 84.8418 32.2334 86.4563 33.3934L86.8349 33.6751C88.8758 35.1915 90.5965 37.2029 91.8629 39.4078C92.0239 39.702 92.1865 39.9748 92.3743 40.2539C92.752 40.2539 92.752 40.2539 93.0407 40.1091C95.4484 38.7149 98.0919 37.5181 100.769 36.7566C100.937 36.7088 101.106 36.6605 101.274 36.6117L101.321 36.5982C101.639 36.5061 101.957 36.414 102.277 36.3308L102.519 36.2681L102.975 36.1382C103.383 36.0292 103.383 36.0292 103.705 35.8259C103.864 35.3786 103.864 35.3786 103.914 35.1038L103.957 34.8137C104.4 32.4879 104.4 32.4879 104.363 26.2231C104.359 25.5128 104.356 24.8025 104.354 24.0922C104.35 22.5633 104.343 21.0343 104.334 19.5054C104.122 19.5044 103.91 19.5035 103.698 19.5029Z" fill="#E6E0AA"/>
</svg>
