<svg width="25" height="26" viewBox="0 0 25 26" fill="none" xmlns="http://www.w3.org/2000/svg">
<g clip-path="url(#clip0_233_33)">
<path d="M8.31445 1.32262C5.81656 2.18916 3.66238 3.83389 2.16834 6.01521C0.674288 8.19653 -0.0808816 10.7995 0.0137491 13.4417C0.10838 16.0839 1.04782 18.6262 2.69409 20.695C4.34036 22.7639 6.60667 24.2503 9.16015 24.9359C11.2303 25.4701 13.3992 25.4935 15.4805 25.0043C17.3659 24.5808 19.1089 23.6749 20.5391 22.3754C22.0275 20.9815 23.1079 19.2083 23.6641 17.2465C24.2686 15.113 24.3762 12.8694 23.9785 10.6879H12.3535V15.5101H19.0859C18.9514 16.2792 18.663 17.0133 18.2382 17.6684C17.8133 18.3235 17.2607 18.8861 16.6133 19.3226C15.7912 19.8664 14.8644 20.2323 13.8926 20.3968C12.9179 20.5781 11.9181 20.5781 10.9434 20.3968C9.95544 20.1926 9.02089 19.7848 8.19921 19.1996C6.87919 18.2652 5.88803 16.9377 5.36718 15.4066C4.83752 13.8468 4.83752 12.1558 5.36718 10.5961C5.73794 9.50273 6.35084 8.50726 7.16015 7.68395C8.08631 6.72447 9.25885 6.03863 10.5491 5.70168C11.8394 5.36472 13.1976 5.38968 14.4746 5.7738C15.4722 6.08003 16.3845 6.61508 17.1387 7.3363C17.8978 6.58109 18.6556 5.82393 19.4121 5.06481C19.8027 4.65661 20.2285 4.26794 20.6133 3.84997C19.462 2.77863 18.1107 1.945 16.6367 1.39684C13.9525 0.422213 11.0156 0.396021 8.31445 1.32262Z" fill="white"/>
<path d="M8.31445 1.32262C11.0154 0.395391 13.9523 0.420894 16.6367 1.39489C18.111 1.94677 19.4617 2.78442 20.6113 3.85973C20.2207 4.2777 19.8086 4.66833 19.4102 5.07458C18.6523 5.83109 17.8952 6.58499 17.1387 7.3363C16.3845 6.61508 15.4722 6.08003 14.4746 5.7738C13.198 5.38833 11.8399 5.36194 10.5493 5.69751C9.25863 6.03309 8.08537 6.71767 7.1582 7.67614C6.34889 8.49945 5.73598 9.49492 5.36523 10.5882L1.3164 7.45348C2.76564 4.57958 5.27489 2.38126 8.31445 1.32262Z" fill="#E33629"/>
<path d="M0.242182 10.559C0.459802 9.48042 0.821095 8.43596 1.3164 7.45348L5.36523 10.5961C4.83557 12.1558 4.83557 13.8468 5.36523 15.4066C4.01627 16.4483 2.66666 17.4951 1.3164 18.5472C0.0764606 16.0791 -0.3017 13.267 0.242182 10.559Z" fill="#F8BD00"/>
<path d="M12.3535 10.6859H23.9785C24.3762 12.8674 24.2686 15.111 23.6641 17.2445C23.1079 19.2064 22.0275 20.9795 20.5391 22.3734C19.2324 21.3539 17.9199 20.3422 16.6133 19.3226C17.2611 18.8857 17.814 18.3224 18.2389 17.6666C18.6638 17.0108 18.9519 16.276 19.0859 15.5062H12.3535C12.3516 13.9007 12.3535 12.2933 12.3535 10.6859Z" fill="#587DBD"/>
<path d="M1.31445 18.5472C2.66471 17.5056 4.01432 16.4587 5.36328 15.4066C5.88517 16.9382 6.87774 18.2658 8.19921 19.1996C9.02345 19.7821 9.96002 20.1866 10.9492 20.3871C11.9239 20.5683 12.9237 20.5683 13.8984 20.3871C14.8703 20.2226 15.797 19.8567 16.6191 19.3129C17.9258 20.3324 19.2383 21.3441 20.5449 22.3636C19.115 23.6639 17.3719 24.5704 15.4863 24.9945C13.4051 25.4838 11.2362 25.4603 9.16601 24.9261C7.52871 24.489 5.99936 23.7183 4.67382 22.6625C3.27082 21.5486 2.12491 20.1448 1.31445 18.5472Z" fill="#319F43"/>
</g>
<defs>
<clipPath id="clip0_233_33">
<rect width="24.2138" height="24.7093" fill="white" transform="translate(0 0.645325)"/>
</clipPath>
</defs>
</svg>
