<svg width="23" height="23" viewBox="0 0 23 23" fill="none" xmlns="http://www.w3.org/2000/svg">
<circle cx="11.5" cy="11.5" r="8.9" stroke="black" stroke-width="1.2"/>
<path fill-rule="evenodd" clip-rule="evenodd" d="M8.82353 11.5C8.82353 12.5559 7.9676 13.4118 6.91176 13.4118C5.85593 13.4118 5 12.5559 5 11.5C5 10.4442 5.85593 9.58826 6.91176 9.58826C7.9676 9.58826 8.82353 10.4442 8.82353 11.5ZM13.4118 11.5C13.4118 12.5559 12.5558 13.4118 11.5 13.4118C10.4442 13.4118 9.58824 12.5559 9.58824 11.5C9.58824 10.4442 10.4442 9.58826 11.5 9.58826C12.5558 9.58826 13.4118 10.4442 13.4118 11.5ZM16.0882 13.4118C17.1441 13.4118 18 12.5559 18 11.5C18 10.4442 17.1441 9.58826 16.0882 9.58826C15.0324 9.58826 14.1765 10.4442 14.1765 11.5C14.1765 12.5559 15.0324 13.4118 16.0882 13.4118Z" fill="black"/>
</svg>
