<svg width="224" height="225" viewBox="0 0 224 225" fill="none" xmlns="http://www.w3.org/2000/svg">
<g filter="url(#filter0_d_143_1357)">
<mask id="path-1-inside-1_143_1357" fill="white">
<path d="M2.73215 3.19859C2.63313 3.28278 2.53682 3.36697 2.44319 3.45116C2.27891 3.61746 2.11465 3.77347 1.95038 3.91922C-0.88877 6.77652 -0.628203 9.63384 2.73215 12.4911C6.37501 15.5887 6.37501 18.6862 2.73215 21.7837C-0.910717 24.8812 -0.910717 27.9787 2.73215 31.0762C6.37501 34.1738 6.37501 37.2713 2.73215 40.3688C-0.910717 43.4663 -0.910717 46.5638 2.73215 49.6613C6.37501 52.7589 6.37501 55.8564 2.73215 58.9539C-0.910717 62.0514 -0.910717 65.1489 2.73215 68.2464C6.37501 71.344 6.37501 74.4415 2.73215 77.539C-0.910717 80.6365 -0.910717 83.734 2.73215 86.8315C6.37501 89.9291 6.37501 93.0266 2.73215 96.1241C-0.910708 99.2216 -0.910707 102.319 2.73216 105.417C6.37502 108.514 6.37502 111.612 2.73216 114.709C-0.910707 117.807 -0.910707 120.904 2.73216 124.002C6.37502 127.099 6.37502 130.197 2.73216 133.294C-0.910707 136.392 -0.910707 139.489 2.73216 142.587C6.37502 145.684 6.37502 148.782 2.73216 151.879C-0.910707 154.977 -0.910707 158.074 2.73216 161.172C6.37502 164.27 6.37502 167.367 2.73216 170.465C-0.910707 173.562 -0.910707 176.66 2.73216 179.757C6.37502 182.855 6.37502 185.952 2.73216 189.05C-0.910707 192.147 -0.910707 195.245 2.73216 198.342C6.37502 201.44 6.37502 204.537 2.73216 207.635C-0.419284 210.314 -0.844422 212.994 1.45677 215.674C1.98285 216.075 2.50894 216.581 3.03502 217.192C3.48273 217.596 3.86855 218 4.19249 218.404C6.9219 220.861 9.65129 220.481 12.3807 217.265C15.4752 213.619 18.5697 213.619 21.6642 217.265C24.7587 220.912 27.8532 220.912 30.9477 217.265C34.0422 213.619 37.1367 213.619 40.2312 217.265C43.3257 220.912 46.4202 220.912 49.5147 217.265C52.6092 213.619 55.7037 213.619 58.7982 217.265C61.8927 220.912 64.9872 220.912 68.0817 217.265C71.1762 213.619 74.2707 213.619 77.3652 217.265C80.4597 220.912 83.5542 220.912 86.6487 217.265C89.7432 213.619 92.8377 213.619 95.9322 217.265C99.0267 220.912 102.121 220.912 105.216 217.265C108.31 213.619 111.405 213.619 114.499 217.265C117.594 220.912 120.688 220.912 123.783 217.265C126.877 213.619 129.972 213.619 133.066 217.265C136.161 220.912 139.255 220.912 142.35 217.265C145.444 213.619 148.539 213.619 151.633 217.265C154.728 220.912 157.822 220.912 160.917 217.265C164.011 213.619 167.106 213.619 170.2 217.265C173.295 220.912 176.389 220.912 179.484 217.265C182.578 213.619 185.673 213.619 188.767 217.265C191.862 220.912 194.956 220.912 198.051 217.265C201.145 213.619 204.24 213.619 207.334 217.265C210.429 220.912 213.523 220.912 216.618 217.265C218.032 215.599 217.357 216.657 218.571 214.834C219.927 212.799 220.503 210.75 218.268 208.85C214.625 205.753 214.625 202.655 218.268 199.558C221.911 196.46 221.911 193.363 218.268 190.265C214.625 187.168 214.625 184.07 218.268 180.973C221.911 177.875 221.911 174.778 218.268 171.68C214.625 168.583 214.625 165.485 218.268 162.387C221.911 159.29 221.911 156.192 218.268 153.095C214.625 149.997 214.625 146.9 218.268 143.802C221.911 140.705 221.911 137.607 218.268 134.51C214.625 131.412 214.625 128.315 218.268 125.217C221.911 122.12 221.911 119.022 218.268 115.925C214.625 112.827 214.625 109.73 218.268 106.632C221.911 103.535 221.911 100.437 218.268 97.3396C214.625 94.242 214.625 91.1445 218.268 88.047C221.911 84.9495 221.911 81.852 218.268 78.7545C214.625 75.657 214.625 72.5594 218.268 69.4619C221.911 66.3644 221.911 63.2669 218.268 60.1694C214.625 57.0718 214.625 53.9743 218.268 50.8768C221.911 47.7793 221.911 44.6818 218.268 41.5842C214.625 38.4867 214.625 35.3892 218.268 32.2917C221.911 29.1942 221.911 26.0967 218.268 22.9992C214.625 19.9016 214.625 16.8041 218.268 13.7066C221.911 10.6091 221.911 7.51158 218.268 4.41406C217.766 3.98717 217.333 3.56027 216.969 3.13338C216.852 3.00575 216.735 2.8729 216.618 2.73482C213.523 -0.911602 210.429 -0.911602 207.334 2.73482C204.24 6.38122 201.145 6.38122 198.051 2.73482C194.956 -0.911602 191.862 -0.911602 188.767 2.73482C185.673 6.38122 182.578 6.38122 179.484 2.73482C176.389 -0.911602 173.295 -0.911602 170.2 2.73482C167.106 6.38122 164.011 6.38122 160.917 2.73482C157.822 -0.911602 154.728 -0.911602 151.633 2.73482C148.539 6.38122 145.444 6.38122 142.35 2.73482C139.255 -0.911602 136.161 -0.911602 133.066 2.73482C129.972 6.38122 126.877 6.38122 123.783 2.73482C120.688 -0.911602 117.594 -0.911602 114.499 2.73482C111.405 6.38122 108.31 6.38122 105.216 2.73482C102.121 -0.911602 99.0267 -0.911602 95.9322 2.73482C92.8377 6.38122 89.7432 6.38122 86.6487 2.73482C83.5542 -0.911602 80.4597 -0.911602 77.3652 2.73482C74.2707 6.38122 71.1762 6.38122 68.0817 2.73482C64.9872 -0.911602 61.8927 -0.911602 58.7982 2.73482C55.7037 6.38122 52.6092 6.38122 49.5147 2.73482C46.4202 -0.911602 43.3257 -0.911602 40.2312 2.73482C37.1367 6.38122 34.0422 6.38122 30.9477 2.73482C27.8532 -0.911602 24.7587 -0.911602 21.6642 2.73482C18.5697 6.38122 15.4752 6.38122 12.3807 2.73482C9.74314 -0.373148 7.1056 -0.832093 4.46805 1.35798C4.03234 1.97151 3.4537 2.58506 2.73215 3.19859Z"/>
</mask>
<path d="M2.73215 3.19859C2.63313 3.28278 2.53682 3.36697 2.44319 3.45116C2.27891 3.61746 2.11465 3.77347 1.95038 3.91922C-0.88877 6.77652 -0.628203 9.63384 2.73215 12.4911C6.37501 15.5887 6.37501 18.6862 2.73215 21.7837C-0.910717 24.8812 -0.910717 27.9787 2.73215 31.0762C6.37501 34.1738 6.37501 37.2713 2.73215 40.3688C-0.910717 43.4663 -0.910717 46.5638 2.73215 49.6613C6.37501 52.7589 6.37501 55.8564 2.73215 58.9539C-0.910717 62.0514 -0.910717 65.1489 2.73215 68.2464C6.37501 71.344 6.37501 74.4415 2.73215 77.539C-0.910717 80.6365 -0.910717 83.734 2.73215 86.8315C6.37501 89.9291 6.37501 93.0266 2.73215 96.1241C-0.910708 99.2216 -0.910707 102.319 2.73216 105.417C6.37502 108.514 6.37502 111.612 2.73216 114.709C-0.910707 117.807 -0.910707 120.904 2.73216 124.002C6.37502 127.099 6.37502 130.197 2.73216 133.294C-0.910707 136.392 -0.910707 139.489 2.73216 142.587C6.37502 145.684 6.37502 148.782 2.73216 151.879C-0.910707 154.977 -0.910707 158.074 2.73216 161.172C6.37502 164.27 6.37502 167.367 2.73216 170.465C-0.910707 173.562 -0.910707 176.66 2.73216 179.757C6.37502 182.855 6.37502 185.952 2.73216 189.05C-0.910707 192.147 -0.910707 195.245 2.73216 198.342C6.37502 201.44 6.37502 204.537 2.73216 207.635C-0.419284 210.314 -0.844422 212.994 1.45677 215.674C1.98285 216.075 2.50894 216.581 3.03502 217.192C3.48273 217.596 3.86855 218 4.19249 218.404C6.9219 220.861 9.65129 220.481 12.3807 217.265C15.4752 213.619 18.5697 213.619 21.6642 217.265C24.7587 220.912 27.8532 220.912 30.9477 217.265C34.0422 213.619 37.1367 213.619 40.2312 217.265C43.3257 220.912 46.4202 220.912 49.5147 217.265C52.6092 213.619 55.7037 213.619 58.7982 217.265C61.8927 220.912 64.9872 220.912 68.0817 217.265C71.1762 213.619 74.2707 213.619 77.3652 217.265C80.4597 220.912 83.5542 220.912 86.6487 217.265C89.7432 213.619 92.8377 213.619 95.9322 217.265C99.0267 220.912 102.121 220.912 105.216 217.265C108.31 213.619 111.405 213.619 114.499 217.265C117.594 220.912 120.688 220.912 123.783 217.265C126.877 213.619 129.972 213.619 133.066 217.265C136.161 220.912 139.255 220.912 142.35 217.265C145.444 213.619 148.539 213.619 151.633 217.265C154.728 220.912 157.822 220.912 160.917 217.265C164.011 213.619 167.106 213.619 170.2 217.265C173.295 220.912 176.389 220.912 179.484 217.265C182.578 213.619 185.673 213.619 188.767 217.265C191.862 220.912 194.956 220.912 198.051 217.265C201.145 213.619 204.24 213.619 207.334 217.265C210.429 220.912 213.523 220.912 216.618 217.265C218.032 215.599 217.357 216.657 218.571 214.834C219.927 212.799 220.503 210.75 218.268 208.85C214.625 205.753 214.625 202.655 218.268 199.558C221.911 196.46 221.911 193.363 218.268 190.265C214.625 187.168 214.625 184.07 218.268 180.973C221.911 177.875 221.911 174.778 218.268 171.68C214.625 168.583 214.625 165.485 218.268 162.387C221.911 159.29 221.911 156.192 218.268 153.095C214.625 149.997 214.625 146.9 218.268 143.802C221.911 140.705 221.911 137.607 218.268 134.51C214.625 131.412 214.625 128.315 218.268 125.217C221.911 122.12 221.911 119.022 218.268 115.925C214.625 112.827 214.625 109.73 218.268 106.632C221.911 103.535 221.911 100.437 218.268 97.3396C214.625 94.242 214.625 91.1445 218.268 88.047C221.911 84.9495 221.911 81.852 218.268 78.7545C214.625 75.657 214.625 72.5594 218.268 69.4619C221.911 66.3644 221.911 63.2669 218.268 60.1694C214.625 57.0718 214.625 53.9743 218.268 50.8768C221.911 47.7793 221.911 44.6818 218.268 41.5842C214.625 38.4867 214.625 35.3892 218.268 32.2917C221.911 29.1942 221.911 26.0967 218.268 22.9992C214.625 19.9016 214.625 16.8041 218.268 13.7066C221.911 10.6091 221.911 7.51158 218.268 4.41406C217.766 3.98717 217.333 3.56027 216.969 3.13338C216.852 3.00575 216.735 2.8729 216.618 2.73482C213.523 -0.911602 210.429 -0.911602 207.334 2.73482C204.24 6.38122 201.145 6.38122 198.051 2.73482C194.956 -0.911602 191.862 -0.911602 188.767 2.73482C185.673 6.38122 182.578 6.38122 179.484 2.73482C176.389 -0.911602 173.295 -0.911602 170.2 2.73482C167.106 6.38122 164.011 6.38122 160.917 2.73482C157.822 -0.911602 154.728 -0.911602 151.633 2.73482C148.539 6.38122 145.444 6.38122 142.35 2.73482C139.255 -0.911602 136.161 -0.911602 133.066 2.73482C129.972 6.38122 126.877 6.38122 123.783 2.73482C120.688 -0.911602 117.594 -0.911602 114.499 2.73482C111.405 6.38122 108.31 6.38122 105.216 2.73482C102.121 -0.911602 99.0267 -0.911602 95.9322 2.73482C92.8377 6.38122 89.7432 6.38122 86.6487 2.73482C83.5542 -0.911602 80.4597 -0.911602 77.3652 2.73482C74.2707 6.38122 71.1762 6.38122 68.0817 2.73482C64.9872 -0.911602 61.8927 -0.911602 58.7982 2.73482C55.7037 6.38122 52.6092 6.38122 49.5147 2.73482C46.4202 -0.911602 43.3257 -0.911602 40.2312 2.73482C37.1367 6.38122 34.0422 6.38122 30.9477 2.73482C27.8532 -0.911602 24.7587 -0.911602 21.6642 2.73482C18.5697 6.38122 15.4752 6.38122 12.3807 2.73482C9.74314 -0.373148 7.1056 -0.832093 4.46805 1.35798C4.03234 1.97151 3.4537 2.58506 2.73215 3.19859Z" fill="#E5DFAA"/>
<path d="M2.73215 3.19859C2.63313 3.28278 2.53682 3.36697 2.44319 3.45116C2.27891 3.61746 2.11465 3.77347 1.95038 3.91922C-0.88877 6.77652 -0.628203 9.63384 2.73215 12.4911C6.37501 15.5887 6.37501 18.6862 2.73215 21.7837C-0.910717 24.8812 -0.910717 27.9787 2.73215 31.0762C6.37501 34.1738 6.37501 37.2713 2.73215 40.3688C-0.910717 43.4663 -0.910717 46.5638 2.73215 49.6613C6.37501 52.7589 6.37501 55.8564 2.73215 58.9539C-0.910717 62.0514 -0.910717 65.1489 2.73215 68.2464C6.37501 71.344 6.37501 74.4415 2.73215 77.539C-0.910717 80.6365 -0.910717 83.734 2.73215 86.8315C6.37501 89.9291 6.37501 93.0266 2.73215 96.1241C-0.910708 99.2216 -0.910707 102.319 2.73216 105.417C6.37502 108.514 6.37502 111.612 2.73216 114.709C-0.910707 117.807 -0.910707 120.904 2.73216 124.002C6.37502 127.099 6.37502 130.197 2.73216 133.294C-0.910707 136.392 -0.910707 139.489 2.73216 142.587C6.37502 145.684 6.37502 148.782 2.73216 151.879C-0.910707 154.977 -0.910707 158.074 2.73216 161.172C6.37502 164.27 6.37502 167.367 2.73216 170.465C-0.910707 173.562 -0.910707 176.66 2.73216 179.757C6.37502 182.855 6.37502 185.952 2.73216 189.05C-0.910707 192.147 -0.910707 195.245 2.73216 198.342C6.37502 201.44 6.37502 204.537 2.73216 207.635C-0.419284 210.314 -0.844422 212.994 1.45677 215.674C1.98285 216.075 2.50894 216.581 3.03502 217.192C3.48273 217.596 3.86855 218 4.19249 218.404C6.9219 220.861 9.65129 220.481 12.3807 217.265C15.4752 213.619 18.5697 213.619 21.6642 217.265C24.7587 220.912 27.8532 220.912 30.9477 217.265C34.0422 213.619 37.1367 213.619 40.2312 217.265C43.3257 220.912 46.4202 220.912 49.5147 217.265C52.6092 213.619 55.7037 213.619 58.7982 217.265C61.8927 220.912 64.9872 220.912 68.0817 217.265C71.1762 213.619 74.2707 213.619 77.3652 217.265C80.4597 220.912 83.5542 220.912 86.6487 217.265C89.7432 213.619 92.8377 213.619 95.9322 217.265C99.0267 220.912 102.121 220.912 105.216 217.265C108.31 213.619 111.405 213.619 114.499 217.265C117.594 220.912 120.688 220.912 123.783 217.265C126.877 213.619 129.972 213.619 133.066 217.265C136.161 220.912 139.255 220.912 142.35 217.265C145.444 213.619 148.539 213.619 151.633 217.265C154.728 220.912 157.822 220.912 160.917 217.265C164.011 213.619 167.106 213.619 170.2 217.265C173.295 220.912 176.389 220.912 179.484 217.265C182.578 213.619 185.673 213.619 188.767 217.265C191.862 220.912 194.956 220.912 198.051 217.265C201.145 213.619 204.24 213.619 207.334 217.265C210.429 220.912 213.523 220.912 216.618 217.265C218.032 215.599 217.357 216.657 218.571 214.834C219.927 212.799 220.503 210.75 218.268 208.85C214.625 205.753 214.625 202.655 218.268 199.558C221.911 196.46 221.911 193.363 218.268 190.265C214.625 187.168 214.625 184.07 218.268 180.973C221.911 177.875 221.911 174.778 218.268 171.68C214.625 168.583 214.625 165.485 218.268 162.387C221.911 159.29 221.911 156.192 218.268 153.095C214.625 149.997 214.625 146.9 218.268 143.802C221.911 140.705 221.911 137.607 218.268 134.51C214.625 131.412 214.625 128.315 218.268 125.217C221.911 122.12 221.911 119.022 218.268 115.925C214.625 112.827 214.625 109.73 218.268 106.632C221.911 103.535 221.911 100.437 218.268 97.3396C214.625 94.242 214.625 91.1445 218.268 88.047C221.911 84.9495 221.911 81.852 218.268 78.7545C214.625 75.657 214.625 72.5594 218.268 69.4619C221.911 66.3644 221.911 63.2669 218.268 60.1694C214.625 57.0718 214.625 53.9743 218.268 50.8768C221.911 47.7793 221.911 44.6818 218.268 41.5842C214.625 38.4867 214.625 35.3892 218.268 32.2917C221.911 29.1942 221.911 26.0967 218.268 22.9992C214.625 19.9016 214.625 16.8041 218.268 13.7066C221.911 10.6091 221.911 7.51158 218.268 4.41406C217.766 3.98717 217.333 3.56027 216.969 3.13338C216.852 3.00575 216.735 2.8729 216.618 2.73482C213.523 -0.911602 210.429 -0.911602 207.334 2.73482C204.24 6.38122 201.145 6.38122 198.051 2.73482C194.956 -0.911602 191.862 -0.911602 188.767 2.73482C185.673 6.38122 182.578 6.38122 179.484 2.73482C176.389 -0.911602 173.295 -0.911602 170.2 2.73482C167.106 6.38122 164.011 6.38122 160.917 2.73482C157.822 -0.911602 154.728 -0.911602 151.633 2.73482C148.539 6.38122 145.444 6.38122 142.35 2.73482C139.255 -0.911602 136.161 -0.911602 133.066 2.73482C129.972 6.38122 126.877 6.38122 123.783 2.73482C120.688 -0.911602 117.594 -0.911602 114.499 2.73482C111.405 6.38122 108.31 6.38122 105.216 2.73482C102.121 -0.911602 99.0267 -0.911602 95.9322 2.73482C92.8377 6.38122 89.7432 6.38122 86.6487 2.73482C83.5542 -0.911602 80.4597 -0.911602 77.3652 2.73482C74.2707 6.38122 71.1762 6.38122 68.0817 2.73482C64.9872 -0.911602 61.8927 -0.911602 58.7982 2.73482C55.7037 6.38122 52.6092 6.38122 49.5147 2.73482C46.4202 -0.911602 43.3257 -0.911602 40.2312 2.73482C37.1367 6.38122 34.0422 6.38122 30.9477 2.73482C27.8532 -0.911602 24.7587 -0.911602 21.6642 2.73482C18.5697 6.38122 15.4752 6.38122 12.3807 2.73482C9.74314 -0.373148 7.1056 -0.832093 4.46805 1.35798C4.03234 1.97151 3.4537 2.58506 2.73215 3.19859Z" stroke="black" stroke-width="2" mask="url(#path-1-inside-1_143_1357)"/>
</g>
<path fill-rule="evenodd" clip-rule="evenodd" d="M115.516 85.681C115.516 85.681 111.019 82.6295 111.818 70.0272C111.818 70.0272 104.706 73.4842 96.9463 67.639L95.1565 85.5355C95.1565 85.5355 100.536 91.8821 106.177 91.2666C111.818 90.6511 115.516 85.681 115.516 85.681Z" fill="#F6F4E4"/>
<path fill-rule="evenodd" clip-rule="evenodd" d="M111.646 69.6443C107.047 71.8792 102.245 71.1081 97.1853 67.2967C96.9316 67.1055 96.5737 67.2714 96.5413 67.5953L94.7514 85.4918C94.7397 85.6092 94.7758 85.7264 94.8508 85.815C98.5173 90.1403 102.312 92.1136 106.22 91.6871C110.093 91.2646 113.306 89.3428 115.838 85.9397C115.983 85.7444 115.938 85.462 115.739 85.3271C112.901 83.4017 111.7 78.3177 112.225 70.0551C112.245 69.734 111.926 69.5078 111.646 69.6443ZM95.5808 85.3932L97.2804 68.3997L97.6162 68.6361C102.282 71.8424 106.809 72.5659 111.159 70.7828L111.372 70.6926L111.362 70.8866C110.983 78.4737 112.11 83.4064 114.81 85.67L114.93 85.767L114.737 86.0103C112.494 88.7707 109.745 90.3643 106.475 90.8045L106.135 90.846C102.521 91.2402 98.9687 89.3928 95.462 85.2561L95.5808 85.3932Z" fill="black"/>
<path fill-rule="evenodd" clip-rule="evenodd" d="M106.163 71.1915C114.382 71.1915 121.046 63.8534 121.046 54.8001C121.046 45.7469 114.382 38.408 106.163 38.408C97.9433 38.408 91.2801 45.7469 91.2801 54.8001C91.2801 63.8534 97.9433 71.1915 106.163 71.1915Z" fill="#F6F4E4"/>
<path fill-rule="evenodd" clip-rule="evenodd" d="M106.163 38.8309C114.145 38.8309 120.639 45.9947 120.639 54.8002C120.639 63.6057 114.145 70.7686 106.163 70.7686C98.1811 70.7686 91.6873 63.6057 91.6873 54.8002C91.6873 45.9947 98.1811 38.8309 106.163 38.8309ZM106.163 71.6144C114.594 71.6144 121.453 64.0717 121.453 54.8002C121.453 45.5279 114.594 37.9852 106.163 37.9852C97.7316 37.9852 90.8729 45.5279 90.8729 54.8002C90.8729 64.0717 97.7316 71.6144 106.163 71.6144Z" fill="black"/>
<path fill-rule="evenodd" clip-rule="evenodd" d="M110.27 59.8956C110.287 59.8956 110.304 59.8947 110.322 59.8922L112.953 59.5618C113.076 59.5462 113.186 59.4769 113.256 59.3711C113.326 59.2636 113.347 59.1327 113.315 59.0087L112.519 55.8756C112.458 55.639 112.224 55.4968 111.994 55.5601C111.765 55.6216 111.629 55.8652 111.689 56.101L112.361 58.7417L110.219 59.0104C109.983 59.0408 109.815 59.2619 109.844 59.5055C109.871 59.73 110.056 59.8956 110.27 59.8956Z" fill="black"/>
<path fill-rule="evenodd" clip-rule="evenodd" d="M105.861 54.203C105.861 55.0067 106.257 55.6568 106.745 55.6568C107.233 55.6568 107.629 55.0067 107.629 54.203C107.629 53.4002 107.233 52.7492 106.745 52.7492C106.257 52.7492 105.861 53.4002 105.861 54.203Z" fill="black"/>
<path fill-rule="evenodd" clip-rule="evenodd" d="M114.441 54.203C114.441 55.0067 114.837 55.6568 115.326 55.6568C115.814 55.6568 116.21 55.0067 116.21 54.203C116.21 53.4002 115.814 52.7492 115.326 52.7492C114.837 52.7492 114.441 53.4002 114.441 54.203Z" fill="black"/>
<path fill-rule="evenodd" clip-rule="evenodd" d="M104.541 50.7429C104.64 50.7429 104.739 50.7074 104.82 50.6354C106.121 49.4824 107.601 49.4928 107.62 49.4971C107.861 49.5127 108.052 49.3064 108.057 49.0619C108.062 48.8166 107.875 48.6155 107.639 48.6094C107.567 48.6042 105.819 48.5799 104.261 49.9635C104.081 50.1222 104.061 50.4022 104.215 50.5886C104.3 50.69 104.42 50.7429 104.541 50.7429Z" fill="black"/>
<path fill-rule="evenodd" clip-rule="evenodd" d="M117.53 50.7428C117.651 50.7428 117.771 50.6899 117.856 50.5876C118.01 50.4021 117.99 50.1221 117.81 49.9626C116.252 48.5806 114.506 48.6058 114.431 48.6093C114.195 48.6153 114.008 48.8164 114.014 49.0618C114.018 49.3063 114.219 49.5144 114.45 49.497C114.459 49.5091 115.949 49.4814 117.251 50.6361C117.332 50.7073 117.431 50.7428 117.53 50.7428Z" fill="black"/>
<path fill-rule="evenodd" clip-rule="evenodd" d="M110.225 65.0913C111.882 65.0913 113.121 64.2504 113.14 64.2374C113.336 64.0995 113.388 63.8265 113.257 63.6228C113.125 63.4182 112.859 63.3644 112.662 63.4996C112.557 63.5734 110.046 65.2543 107.579 63.1945C107.395 63.0402 107.126 63.0714 106.977 63.2613C106.827 63.4511 106.856 63.732 107.04 63.8845C108.138 64.8018 109.253 65.0913 110.225 65.0913Z" fill="black"/>
<path fill-rule="evenodd" clip-rule="evenodd" d="M115.516 85.681C115.516 85.681 111.019 82.6295 111.818 70.0272C111.818 70.0272 104.706 73.4842 96.9463 67.639L95.1565 85.5355C95.1565 85.5355 100.536 91.8821 106.177 91.2666C111.818 90.6511 115.516 85.681 115.516 85.681Z" fill="#F6F4E4"/>
<path fill-rule="evenodd" clip-rule="evenodd" d="M111.646 69.6443C107.047 71.8792 102.245 71.1081 97.1853 67.2967C96.9316 67.1055 96.5737 67.2714 96.5413 67.5953L94.7514 85.4918C94.7397 85.6092 94.7758 85.7264 94.8508 85.815C98.5173 90.1403 102.312 92.1136 106.22 91.6871C110.093 91.2646 113.306 89.3428 115.838 85.9397C115.983 85.7444 115.938 85.462 115.739 85.3271C112.901 83.4017 111.7 78.3177 112.225 70.0551C112.245 69.734 111.926 69.5078 111.646 69.6443ZM95.5808 85.3932L97.2804 68.3997L97.6162 68.6361C102.282 71.8424 106.809 72.5659 111.159 70.7828L111.372 70.6926L111.362 70.8866C110.983 78.4737 112.11 83.4064 114.81 85.67L114.93 85.767L114.737 86.0103C112.494 88.7707 109.745 90.3643 106.475 90.8045L106.135 90.846C102.521 91.2402 98.9687 89.3928 95.462 85.2561L95.5808 85.3932Z" fill="black"/>
<path fill-rule="evenodd" clip-rule="evenodd" d="M86.6331 61.8626C86.6812 61.9404 86.7276 62.0216 86.7773 62.0994C86.7284 62.0216 86.6812 61.9413 86.6331 61.8626ZM68.1728 46.2197C75.4281 20.1763 97.5084 34.5318 97.5084 34.5327C97.5084 34.5327 112.65 12.9677 126.372 28.3652C140.094 43.7627 115.822 44.0477 115.822 44.0477L114.585 43.7356H99.0036C97.497 43.7356 96.2298 44.9096 96.0588 46.465L95.2737 53.6051C94.4667 53.4461 93.5701 53.5485 92.4943 54.8586C92.096 55.3449 91.8134 55.9598 91.8175 56.5975C91.8297 58.2595 93.1303 59.6026 94.7322 59.6026C94.8291 59.6026 94.9203 59.5823 95.0148 59.573L94.6931 66.9974C94.4797 66.9974 94.2696 66.9864 94.0619 66.9711L94.0742 66.9974L96.2404 68.1028C94.4683 79.8914 79.8445 78.9805 79.8445 78.9805C79.8445 78.9805 60.9174 72.2649 68.1728 46.2197Z" fill="#A4BC42"/>
<path fill-rule="evenodd" clip-rule="evenodd" d="M79.9268 78.5516C80.9203 78.5973 93.9382 78.9204 95.7795 68.3481L93.8991 67.3898C90.9796 67.1234 88.402 65.3912 86.4801 62.4124C86.4703 62.3963 86.4606 62.3802 86.4508 62.3642C86.1877 61.9539 85.9353 61.5234 85.6983 61.0668C83.4563 56.7499 83.0923 51.3648 84.6982 46.2935C84.8041 45.9628 84.9132 45.6295 85.0272 45.298C85.0761 45.1542 85.1307 45.0113 85.182 44.8675C85.2488 44.6789 85.3139 44.4903 85.3848 44.3016C85.4336 44.1731 85.4874 44.0454 85.5379 43.9177C85.6177 43.7155 85.695 43.5117 85.7797 43.3112C85.8237 43.2064 85.8726 43.104 85.9182 43C86.0151 42.7784 86.1104 42.5559 86.2146 42.3377C86.2627 42.2354 86.3164 42.1364 86.3669 42.035C86.4744 41.8176 86.5795 41.6002 86.6951 41.3862C86.748 41.2864 86.8083 41.1917 86.8637 41.0936C86.9826 40.8821 87.0999 40.6707 87.2269 40.4652C87.2896 40.3645 87.358 40.2673 87.4232 40.1683C87.551 39.9712 87.6781 39.7716 87.8157 39.5805C87.8857 39.4807 87.9655 39.3868 88.0388 39.2895C88.1789 39.1035 88.3165 38.9174 88.4664 38.7381C88.5454 38.6433 88.6325 38.5554 88.7148 38.4632C88.8687 38.289 89.0202 38.113 89.1847 37.9473C89.2751 37.8551 89.376 37.7705 89.4697 37.6808C89.6358 37.5227 89.7987 37.3637 89.9746 37.214C90.0788 37.126 90.1929 37.0474 90.3012 36.9619C90.4795 36.8207 90.6546 36.6777 90.8444 36.5458C90.9616 36.4638 91.0903 36.391 91.2117 36.3141C91.4039 36.1897 91.5936 36.0637 91.7972 35.9487C91.9291 35.8742 92.0733 35.8108 92.2101 35.7415C92.4169 35.6357 92.6197 35.5266 92.838 35.4311C92.9862 35.3651 93.1474 35.3118 93.3014 35.2517C93.5229 35.1646 93.7403 35.0741 93.974 34.998C94.1394 34.943 94.3177 34.9024 94.4879 34.8542C94.7257 34.7866 94.9594 34.7147 95.2095 34.658C95.3927 34.6166 95.5906 34.5887 95.7812 34.5531C96.0141 34.5092 96.2388 34.4576 96.4823 34.4237C93.9903 33.0333 86.1584 29.2382 79.1718 32.0107C74.2432 33.9636 70.677 38.7854 68.5727 46.3391C61.7042 70.9962 78.8428 78.1296 79.9268 78.5516ZM91.4022 56.6002C91.3973 55.9117 91.6734 55.1945 92.1783 54.5788C93.2264 53.3008 94.1573 53.0648 94.909 53.1215L95.646 46.4153C95.8414 44.6408 97.2845 43.3036 99.0037 43.3036H114.586C114.618 43.3036 114.652 43.3079 114.684 43.3163L115.868 43.6157C116.716 43.5963 127.748 43.2419 129.824 38.2298C130.829 35.804 129.566 32.5841 126.067 28.6589C122.665 24.841 118.883 23.0183 114.817 23.2763C105.647 23.8303 97.9222 34.6783 97.8448 34.7883C97.8415 34.7933 97.8342 34.7942 97.8301 34.7993C97.7821 34.8618 97.7226 34.9126 97.6477 34.9405L96.8382 35.2374C96.8097 35.2475 96.7804 35.2551 96.7511 35.2577C89.7124 36.1669 87.1788 41.2289 85.489 46.5641C83.9531 51.4105 84.2959 56.5469 86.4304 60.6574C86.6609 61.1015 86.9052 61.5201 87.1617 61.9176C88.9542 64.6858 91.3721 66.3038 94.0807 66.5127C94.1068 66.5153 94.1329 66.528 94.1589 66.5381C94.2053 66.5415 94.2501 66.5525 94.2974 66.555L94.5791 60.0307C92.8266 59.947 91.4153 58.4406 91.4022 56.6002ZM67.7738 46.0998C70.1762 37.4762 74.4452 32.2881 80.461 30.6786C87.9167 28.6885 95.5784 32.8641 97.3977 33.9695C98.7593 32.1283 105.976 22.9473 114.767 22.4144C119.089 22.1446 123.098 24.0561 126.678 28.071C130.419 32.2704 131.735 35.8032 130.588 38.5706C128.227 44.2687 116.333 44.4742 115.827 44.4801C115.788 44.4793 115.758 44.4767 115.724 44.4674L114.535 44.1672H99.0037C97.7072 44.1672 96.6191 45.1762 96.4717 46.5134L95.6875 53.6543C95.6737 53.7728 95.6142 53.8819 95.5206 53.9521C95.4277 54.0239 95.3096 54.0502 95.1964 54.029C94.536 53.9005 93.7916 53.9436 92.8111 55.1387C92.4357 55.5963 92.2305 56.1139 92.2337 56.5943C92.2443 58.0152 93.3649 59.1706 94.733 59.1706C94.777 59.1706 94.8186 59.1638 94.8601 59.157L94.9765 59.1426C95.0954 59.1359 95.2152 59.1739 95.3023 59.2594C95.3894 59.3465 95.4359 59.4674 95.431 59.5926L95.1093 67.0168C95.1093 67.0253 95.1044 67.0329 95.1036 67.0413L96.4237 67.7146C96.5874 67.7975 96.6794 67.981 96.6517 68.1688C95.9009 73.164 92.7362 76.6934 87.5005 78.374C84.6168 79.3018 81.8862 79.4296 80.5946 79.4296C80.1369 79.4296 79.8592 79.4135 79.8201 79.411C79.7826 79.4084 79.7452 79.4008 79.7102 79.389C79.5171 79.3196 60.4924 72.2379 67.7738 46.0998Z" fill="black"/>
<path fill-rule="evenodd" clip-rule="evenodd" d="M97.374 34.6452C97.374 34.6452 105.721 27.5457 97.374 24.166C89.0274 20.7862 97.374 34.6452 97.374 34.6452ZM97.374 34.6544C97.374 34.6544 90.1448 26.3369 87.2961 35.1585C84.4466 43.9792 97.374 34.6544 97.374 34.6544Z" fill="#F6F4E4"/>
<path fill-rule="evenodd" clip-rule="evenodd" d="M87.6626 38.3019C88.977 39.327 93.7509 36.6704 96.7315 34.5872C95.7942 33.6281 93.0587 31.0899 90.7246 31.5999C89.411 31.8841 88.3898 33.1282 87.6903 35.2951C87.3336 36.3989 87.0396 37.8164 87.6626 38.3019ZM100.632 27.8953C100.421 26.5184 99.2748 25.3994 97.2234 24.5689C96.5776 24.3075 95.8161 24.0656 95.2111 24.0656C94.8373 24.0656 94.5221 24.1578 94.3332 24.3963C93.2859 25.7081 95.6093 30.7888 97.4693 33.9833C98.4376 33.058 101.005 30.3439 100.632 27.8953ZM86.9011 35.0202C87.7025 32.5412 88.9322 31.1051 90.5561 30.7541C92.3949 30.354 94.3299 31.4468 95.7209 32.5336C94.2916 29.7789 92.408 25.4561 93.6931 23.844C94.3543 23.016 95.6093 22.9881 97.5255 23.7645C99.8718 24.7143 101.194 26.0583 101.453 27.7609C101.983 31.2362 97.8195 34.8249 97.6387 34.9788C97.6281 34.9881 97.6224 35.0016 97.611 35.0084C96.9058 35.5184 91.4665 39.3684 88.4598 39.3684C87.9443 39.3684 87.4997 39.2551 87.1633 38.992C86.3335 38.3459 86.2472 37.0467 86.9011 35.0202Z" fill="black"/>
<path fill-rule="evenodd" clip-rule="evenodd" d="M60.2342 129.164L53.6239 146.061L16.0467 134.817L28.0238 116.674C41.7233 95.9244 64.3908 83.5218 88.6162 83.5218H94.4952C96.0694 86.965 99.9662 89.4085 104.54 89.4245C109.113 89.4085 113.01 86.965 114.584 83.5218H120.463C144.688 83.5218 169.911 95.5455 183.611 116.295L194.68 134.262L155.389 147.489L148.845 129.164L151.222 147.612L156.346 178.781H52.7338L57.8579 147.611L60.2342 129.164Z" fill="#F6F4E4"/>
<path fill-rule="evenodd" clip-rule="evenodd" d="M155.851 178.348H53.2273L58.2683 147.684L60.6471 129.221C60.674 129.005 60.5437 128.802 60.3409 128.746C60.1357 128.688 59.9264 128.799 59.8474 129.001L53.378 145.537L16.7162 134.567L28.3675 116.92C41.9945 96.2788 64.5171 83.9548 88.6154 83.9548H94.2355C96.0019 87.5342 100.012 89.8415 104.538 89.8584C109.067 89.8415 113.078 87.5342 114.843 83.9548H120.463C145.546 83.9548 170.198 96.7465 183.266 116.541L194.038 134.024L155.641 146.95L149.236 129.014C149.162 128.807 148.949 128.693 148.744 128.744C148.538 128.797 148.403 129.002 148.432 129.221L150.808 147.67L155.851 178.348ZM52.733 179.214H156.345C156.468 179.214 156.584 179.157 156.664 179.06C156.743 178.964 156.777 178.834 156.756 178.708L151.632 147.54L149.753 132.955L154.998 147.639C155.075 147.857 155.305 147.971 155.517 147.901L194.808 134.674C194.931 134.633 195.028 134.534 195.072 134.409C195.115 134.282 195.101 134.142 195.031 134.03L183.961 116.063C170.734 96.0276 145.813 83.0896 120.463 83.0896H114.584C114.422 83.0896 114.276 83.186 114.207 83.3366C112.644 86.7569 108.849 88.9771 104.538 88.9923C100.231 88.9771 96.4351 86.7569 94.8715 83.3366C94.8023 83.186 94.6557 83.0896 94.4944 83.0896H88.6154C64.2418 83.0896 41.4628 95.5531 27.6794 116.43L15.7023 134.572C15.6265 134.687 15.6086 134.833 15.6534 134.963C15.699 135.094 15.8016 135.195 15.9303 135.233L53.5075 146.478C53.7135 146.541 53.9293 146.43 54.0091 146.225L59.3857 132.482L57.4442 147.554L52.3225 178.708C52.3022 178.834 52.3356 178.964 52.4146 179.06C52.4936 179.157 52.6108 179.214 52.733 179.214Z" fill="black"/>
<path fill-rule="evenodd" clip-rule="evenodd" d="M121.368 147.588L142.982 141.942C144.721 141.487 145.778 139.653 145.34 137.846L133.593 89.3434C133.155 87.5359 131.39 86.4398 129.65 86.894L108.036 92.5404C106.296 92.9946 105.24 94.8283 105.678 96.6357L117.425 145.138C117.862 146.946 119.628 148.043 121.368 147.588Z" fill="#A4BC42"/>
<path fill-rule="evenodd" clip-rule="evenodd" d="M130.448 87.2238C130.954 87.2238 131.452 87.3651 131.896 87.6416C132.546 88.0459 133.006 88.687 133.19 89.4491L144.936 137.952C145.317 139.525 144.395 141.126 142.881 141.522L121.267 147.167C120.534 147.359 119.772 147.243 119.123 146.84C118.473 146.436 118.014 145.794 117.83 145.033L106.083 96.53C105.703 94.9568 106.625 93.3557 108.139 92.9599L129.752 87.3143C129.983 87.2534 130.216 87.2238 130.448 87.2238ZM120.57 148.125C120.87 148.125 121.172 148.086 121.471 148.008L143.084 142.362C145.044 141.85 146.238 139.777 145.745 137.741L133.998 89.2376C133.759 88.2514 133.164 87.4209 132.325 86.8982C131.484 86.3772 130.499 86.2266 129.549 86.4736L107.936 92.1192C105.975 92.6326 104.782 94.7056 105.274 96.7406L117.021 145.245C117.26 146.231 117.855 147.061 118.694 147.583C119.271 147.941 119.915 148.124 120.57 148.125Z" fill="black"/>
<path fill-rule="evenodd" clip-rule="evenodd" d="M130.976 92.6241C131.227 93.6611 130.621 94.7124 129.624 94.9729C128.625 95.2342 127.613 94.605 127.362 93.5681C127.11 92.532 127.716 91.4798 128.715 91.2193C129.712 90.958 130.725 91.5872 130.976 92.6241Z" fill="#F6F4E4"/>
<path fill-rule="evenodd" clip-rule="evenodd" d="M130.571 92.729C130.666 93.1181 130.608 93.5224 130.41 93.8675C130.211 94.2117 129.896 94.4553 129.522 94.5525C129.146 94.6515 128.758 94.5915 128.426 94.3859C128.094 94.1796 127.86 93.8522 127.766 93.4623C127.671 93.0733 127.728 92.6698 127.927 92.3248C128.126 91.9797 128.441 91.7369 128.816 91.6397C129.59 91.4307 130.378 91.9272 130.571 92.729ZM129.163 95.466C129.351 95.466 129.539 95.4415 129.724 95.3916C130.316 95.2385 130.812 94.8545 131.126 94.3115C131.438 93.7685 131.528 93.1325 131.38 92.5184C131.073 91.2514 129.832 90.4852 128.612 90.799C128.022 90.9529 127.524 91.3369 127.212 91.8807C126.899 92.4237 126.808 93.0606 126.957 93.6738C127.105 94.287 127.475 94.8046 127.998 95.1294C128.356 95.3518 128.757 95.466 129.163 95.466Z" fill="black"/>
<path fill-rule="evenodd" clip-rule="evenodd" d="M177.159 128.438C179.175 137.021 179.343 139.425 179.343 139.425L192.053 135.147C192.053 135.147 221.91 178.473 197.115 194.594C172.322 210.714 153.171 146.233 153.171 146.233C153.171 146.233 149.38 142.843 145.798 138.124C145.78 137.996 145.775 137.869 145.744 137.741L140.306 115.284C140.8 114.232 141.278 113.783 141.278 113.783C141.278 113.783 140.811 114.089 140.107 114.467L137.474 103.595C139.982 101.94 143.688 100.434 149.139 99.338C167.886 95.57 175.143 119.855 177.159 128.438ZM18.8343 135.651L52.2907 145.662L50.1644 150.839C50.1644 150.839 72.5395 135.138 79.3933 129.066C86.2472 122.995 91.0846 106.875 94.3104 101.85C97.5353 96.826 104.389 97.2447 106.203 99.3904C108.017 101.537 106.607 103.107 106.607 103.107C106.607 103.107 117.693 96.1976 121.725 101.222C125.756 106.246 118.701 111.271 118.701 111.271C118.701 111.271 130.191 106.037 132.021 111.69C133.85 117.342 126.965 120.483 126.965 120.483C128.075 120.195 129.198 120.714 130.089 121.362C131.457 122.356 132.4 123.934 132.476 125.666C132.703 130.895 125.985 132.395 123.808 132.742C128.277 132.299 129.385 137.334 129.385 137.334C130.09 144.559 122.128 144.139 122.128 144.139C105.296 142.569 94.9146 151.467 94.9146 151.467C94.9146 151.467 69.3137 196.477 37.263 192.291C5.21135 188.104 18.8343 135.651 18.8343 135.651Z" fill="#F6F4E4"/>
<path fill-rule="evenodd" clip-rule="evenodd" d="M21.7734 182.35C25.2769 187.772 30.5068 190.971 37.3159 191.861C68.7094 195.971 94.3022 151.695 94.5563 151.247C94.5807 151.203 94.6125 151.165 94.6499 151.133C94.7468 151.049 103.711 143.522 118.2 143.522C119.474 143.522 120.792 143.58 122.149 143.708C122.186 143.708 125.837 143.869 127.785 141.736C128.751 140.68 129.15 139.214 128.979 137.431C128.935 137.233 127.931 132.922 124.051 133.144C123.564 133.225 123.243 133.258 123.175 133.265C123.122 133.267 123.072 133.259 123.024 133.245C119.997 133.782 114.969 134.762 111.864 135.838C111.82 135.852 111.775 135.859 111.732 135.859C111.557 135.859 111.394 135.744 111.337 135.564C111.263 135.337 111.381 135.092 111.6 135.016C116.102 133.457 124.534 132.103 125.375 131.97C128.085 131.281 132.23 129.589 132.059 125.686C131.993 124.157 131.167 122.672 129.85 121.717C128.816 120.966 127.881 120.691 127.067 120.903C127.053 120.906 127.039 120.903 127.024 120.906C127.012 120.907 127 120.914 126.988 120.914C126.905 120.92 118.572 121.428 108.503 126.925C108.441 126.959 108.376 126.974 108.31 126.974C108.161 126.974 108.015 126.891 107.941 126.743C107.833 126.532 107.911 126.269 108.116 126.158C117.819 120.861 125.974 120.122 126.86 120.056C127.505 119.742 133.228 116.778 131.626 111.827C131.343 110.953 130.799 110.341 129.963 109.957C126.355 108.298 118.944 111.633 118.87 111.668C118.859 111.672 118.848 111.671 118.838 111.675C118.829 111.678 118.822 111.685 118.813 111.688C118.728 111.713 110.191 114.21 104.795 118.546C104.719 118.606 104.629 118.635 104.54 118.635C104.416 118.635 104.292 118.579 104.21 118.468C104.069 118.278 104.102 118.007 104.284 117.86C109.655 113.545 117.734 111.105 118.518 110.875C118.959 110.545 122.119 108.085 122.512 105.117C122.682 103.843 122.309 102.626 121.405 101.5C117.648 96.8184 106.928 103.41 106.822 103.477C106.814 103.481 106.807 103.482 106.8 103.486C106.794 103.489 106.79 103.496 106.783 103.498C106.74 103.52 102.44 105.63 98.4604 109.498C98.3798 109.575 98.2772 109.614 98.1754 109.614C98.0638 109.614 97.9531 109.569 97.8708 109.477C97.7136 109.302 97.7218 109.029 97.8904 108.865C101.712 105.152 105.705 103.076 106.346 102.756C106.544 102.497 107.282 101.322 105.89 99.6763C105.093 98.7332 103.204 98.1886 101.191 98.3298C98.4515 98.5193 96.0702 99.8886 94.6573 102.089C93.6018 103.734 92.3566 106.621 90.9144 109.964C87.9704 116.788 84.3057 125.284 79.6645 129.395C73.906 134.497 57.0434 146.5 51.9047 150.134C51.8078 150.204 51.6897 150.289 51.5399 150.392C50.8411 150.886 50.4274 151.177 50.3973 151.197C50.3223 151.251 50.2352 151.274 50.1489 151.271C48.187 152.411 45.0085 153.873 41.5987 153.873C41.2868 153.873 40.9724 153.861 40.6573 153.834C40.4284 153.816 40.2566 153.608 40.2745 153.369C40.2932 153.132 40.4879 152.962 40.7232 152.973C44.3252 153.258 47.8515 151.607 49.8858 150.412L51.7231 145.942L19.1332 136.191C18.2341 139.946 12.1262 167.424 21.7734 182.35ZM18.6307 135.275C18.7276 135.217 18.8424 135.206 18.9508 135.236L52.4064 145.246C52.5212 145.281 52.6164 145.365 52.6678 145.476C52.7191 145.589 52.7215 145.717 52.6743 145.832L51.1082 149.644C51.4486 149.414 51.6416 149.265 51.6514 149.257C51.6644 149.247 51.6791 149.244 51.6921 149.237C57.1045 145.407 73.4866 133.73 79.1229 128.736C83.6216 124.751 87.2439 116.356 90.1537 109.609C91.6115 106.231 92.8697 103.315 93.9634 101.61C95.5213 99.1824 98.1355 97.6726 101.136 97.4663C103.429 97.3039 105.542 97.9509 106.517 99.1045C107.512 100.283 107.634 101.331 107.496 102.095C110.467 100.463 118.564 96.6095 122.046 100.945C123.107 102.267 123.542 103.712 123.338 105.239C123.082 107.16 121.865 108.836 120.775 109.991C123.378 109.077 127.645 107.946 130.299 109.164C131.348 109.646 132.059 110.449 132.416 111.552C133.804 115.839 130.496 118.77 128.505 120.088C129.091 120.243 129.699 120.55 130.328 121.007C131.856 122.116 132.814 123.851 132.892 125.647C133.076 129.865 129.189 131.791 126.274 132.639C129.002 133.788 129.784 137.205 129.8 137.291C130.005 139.391 129.53 141.088 128.388 142.336C126.173 144.756 122.274 144.581 122.091 144.571C106.251 143.085 96.0604 151.082 95.2346 151.756C94.1149 153.681 70.8407 192.995 41.4431 192.995C40.0473 192.995 38.6335 192.905 37.2116 192.72C30.1518 191.798 24.7247 188.471 21.0804 182.831C10.552 166.54 18.353 135.847 18.4328 135.538C18.4621 135.427 18.533 135.331 18.6307 135.275Z" fill="black"/>
<path fill-rule="evenodd" clip-rule="evenodd" d="M139.946 115.04C139.909 115.058 139.868 115.078 139.83 115.096L139.623 114.238C140.448 113.813 141.03 113.436 141.053 113.419L141.054 113.418L145.85 110.238C145.937 110.181 146.037 110.166 146.131 110.18C150.806 106.293 158.079 105.719 158.183 105.712C158.419 105.691 158.611 105.876 158.627 106.114C158.642 106.353 158.469 106.56 158.238 106.576C158.098 106.586 144.054 107.689 143.155 117.253C142.525 123.944 143.148 128.261 144.909 129.411C145.801 129.995 147.055 129.787 148.629 128.793C148.653 128.777 148.682 128.773 148.708 128.765C148.398 125.844 149.184 122.023 151.069 117.315C153.793 110.516 163.36 112.371 163.456 112.389C163.682 112.437 163.829 112.662 163.785 112.898C163.741 113.132 163.523 113.282 163.297 113.24C163.207 113.222 154.301 111.503 151.831 117.668C148.277 126.541 148.757 132.038 153.222 133.991C154.033 134.258 156.336 134.71 157.24 133.624C157.266 133.593 157.299 133.573 157.33 133.552C156.282 130.446 156.146 126.292 156.539 123.45C157.415 117.099 166.859 117.741 167.262 117.771C167.491 117.788 167.664 117.995 167.648 118.234C167.631 118.472 167.425 118.654 167.202 118.635C167.11 118.626 158.13 118.018 157.364 123.573C156.791 127.723 157.471 134.706 160.199 136.479C161.296 137.192 162.669 136.98 164.276 135.851C168.814 132.661 164.568 124.648 164.525 124.567C164.412 124.359 164.484 124.095 164.684 123.977C164.886 123.861 165.14 123.935 165.252 124.144C165.322 124.273 165.952 125.464 166.483 127.101C166.526 127.043 166.579 126.993 166.649 126.965C167.428 126.635 167.493 124.773 167.454 124.148C167.439 123.909 167.614 123.703 167.843 123.688C168.073 123.688 168.271 123.853 168.286 124.091C168.306 124.402 168.435 127.144 166.963 127.766C166.912 127.788 166.858 127.798 166.805 127.798C166.762 127.798 166.725 127.774 166.684 127.761C167.489 130.602 167.799 134.421 164.744 136.568C163.609 137.366 162.555 137.765 161.59 137.765C160.937 137.765 160.324 137.581 159.756 137.213C158.863 136.632 158.177 135.632 157.657 134.41C157.017 135.002 156.121 135.181 155.279 135.181C154.101 135.181 153.032 134.836 152.934 134.803C150.692 133.823 149.335 132.099 148.849 129.654C147.808 130.278 146.865 130.602 146.037 130.602C145.458 130.602 144.934 130.45 144.466 130.143C143.87 129.755 143.389 129.118 143.016 128.25L142.238 125.037C141.997 122.976 142.026 120.351 142.325 117.17C142.498 115.333 143.115 113.791 144.003 112.49L141.538 114.126C141.445 114.22 140.742 114.992 140.221 116.711L139.862 115.227C139.89 115.163 139.917 115.098 139.946 115.04Z" fill="black"/>
<path fill-rule="evenodd" clip-rule="evenodd" d="M145.34 137.847L144.949 136.229C148.756 141.68 153.372 145.841 153.443 145.904C153.503 145.959 153.548 146.028 153.57 146.106C153.697 146.534 166.478 188.945 184.25 195.81C188.499 197.452 192.754 196.918 196.895 194.227C201.863 190.997 204.947 186.39 206.062 180.535C209.455 162.713 193.733 138.428 191.889 135.658L179.964 139.671C183.755 157.067 188.671 161.77 188.723 161.82C188.896 161.977 188.912 162.251 188.761 162.429C188.678 162.527 188.564 162.576 188.448 162.576C188.35 162.576 188.252 162.541 188.174 162.469C187.95 162.266 182.987 157.573 179.135 139.794C179.127 139.789 179.118 139.789 179.11 139.784C179.004 139.71 178.937 139.59 178.928 139.457C178.926 139.443 178.854 138.553 178.387 136.089C178.357 135.934 178.328 135.785 178.299 135.629C177.975 133.964 177.488 131.662 176.755 128.54C174.441 118.69 167.123 96.1688 149.219 99.7643C143.989 100.815 139.94 102.348 137.213 104.288L136.994 103.384C139.797 101.464 143.823 99.9664 149.06 98.9134C157.282 97.2616 164.249 100.658 169.768 109.01C174.166 115.668 176.541 123.977 177.565 128.337C178.464 132.167 178.995 134.762 179.311 136.474C179.465 137.278 179.622 138.065 179.781 138.822L191.924 134.735C192.097 134.677 192.286 134.742 192.393 134.895C192.574 135.159 210.534 161.504 206.88 180.702C205.719 186.801 202.509 191.599 197.338 194.96C194.622 196.726 191.857 197.611 189.072 197.611C187.373 197.611 185.666 197.281 183.958 196.621C176.319 193.67 168.745 184.303 161.449 168.781C156.342 157.918 153.178 147.693 152.809 146.48C152.165 145.896 148.693 142.681 145.41 138.34C145.395 138.176 145.38 138.012 145.34 137.847Z" fill="black"/>
<defs>
<filter id="filter0_d_143_1357" x="0" y="0" width="224" height="225" filterUnits="userSpaceOnUse" color-interpolation-filters="sRGB">
<feFlood flood-opacity="0" result="BackgroundImageFix"/>
<feColorMatrix in="SourceAlpha" type="matrix" values="0 0 0 0 0 0 0 0 0 0 0 0 0 0 0 0 0 0 127 0" result="hardAlpha"/>
<feOffset dx="3" dy="5"/>
<feComposite in2="hardAlpha" operator="out"/>
<feColorMatrix type="matrix" values="0 0 0 0 0.0313726 0 0 0 0 0.0117647 0 0 0 0 0.188235 0 0 0 1 0"/>
<feBlend mode="normal" in2="BackgroundImageFix" result="effect1_dropShadow_143_1357"/>
<feBlend mode="normal" in="SourceGraphic" in2="effect1_dropShadow_143_1357" result="shape"/>
</filter>
</defs>
</svg>
