<svg width="18" height="20" viewBox="0 0 18 20" fill="none" xmlns="http://www.w3.org/2000/svg">
<path fill-rule="evenodd" clip-rule="evenodd" d="M12.125 0.5H0.125V14.5C0.125 17.2614 2.36358 19.5 5.125 19.5H17.125V5.5C17.125 2.73858 14.8864 0.5 12.125 0.5ZM3.125 4.5H12.125V3.5H3.125V4.5ZM6.125 7.5H3.125V8.5H6.125V7.5ZM7.125 8.5H12.125V7.5H7.125V8.5ZM13.125 8.5H14.125V7.5H13.125V8.5ZM3.125 11H4.125V10H3.125V11ZM5.125 11H10.125V10H5.125V11ZM11.125 11H14.125V10H11.125V11ZM3.125 13.5H8.125V12.5H3.125V13.5ZM9.125 13.5H10.125V12.5H9.125V13.5ZM11.125 13.5H14.125V12.5H11.125V13.5ZM3.125 16H4.125V15H3.125V16ZM5.125 16H10.125V15H5.125V16ZM11.125 16H14.125V15H11.125V16Z" fill="black"/>
</svg>
