<svg width="400" height="400" viewBox="0 0 400 400" fill="none" xmlns="http://www.w3.org/2000/svg">
<path d="M40 80C40 57.9086 57.9086 40 80 40H240C262.091 40 280 57.9086 280 80V160C280 171.046 271.046 180 260 180C248.954 180 240 171.046 240 160V120C240 97.9086 222.091 80 200 80H120C97.9086 80 80 97.9086 80 120V340C80 351.046 71.0457 360 60 360C48.9543 360 40 351.046 40 340V80Z" fill="#94B704"/>
<path d="M260 260C248.954 260 240 268.954 240 280V340C240 351.046 248.954 360 260 360C271.046 360 280 351.046 280 340V280C280 268.954 271.046 260 260 260Z" fill="#94B704"/>
<path d="M163 220C163 208.954 171.954 200 183 200H281C292.046 200 301 208.954 301 220C301 231.046 292.046 240 281 240H183C171.954 240 163 231.046 163 220Z" fill="#94B704"/>
<path d="M333.7 145.916C325.922 138.074 313.259 138.022 305.416 145.8C297.574 153.578 297.522 166.241 305.3 174.084L351.656 220.824L305.476 266.241C297.601 273.986 297.495 286.648 305.241 294.524C312.986 302.399 325.648 302.505 333.524 294.759L394.024 235.259C397.816 231.53 399.966 226.443 400 221.124C400.033 215.806 397.946 210.693 394.2 206.916L333.7 145.916Z" fill="#94B704"/>
</svg>
