<svg width="41" height="32" viewBox="0 0 41 32" fill="none" xmlns="http://www.w3.org/2000/svg">
<path d="M0.0022453 7.40788C0.682719 7.40442 1.36319 7.4018 2.04367 7.40021C2.3598 7.39944 2.67592 7.3984 2.99204 7.39671C3.29832 7.39507 3.60459 7.39421 3.91086 7.39383C4.02649 7.39356 4.14212 7.39303 4.25774 7.39222C5.36123 7.38479 6.45921 7.46846 7.54234 7.68868C7.60496 7.7012 7.66758 7.71371 7.7321 7.7266C10.1602 8.22423 12.4543 9.312 14.3889 10.8639C14.4388 10.9036 14.4888 10.9432 14.5402 10.9841C15.409 11.6852 16.2697 12.487 16.9421 13.3819C16.9904 13.4434 17.0389 13.5049 17.0873 13.5662C18.3912 15.2309 19.3845 17.1647 19.9447 19.2089C19.9723 19.308 20.0036 19.4061 20.0355 19.504C20.0679 19.5203 20.1003 19.5366 20.1337 19.5534C20.1428 19.52 20.1519 19.4866 20.1612 19.4521C20.7788 17.2055 21.8026 15.1358 23.2762 13.3325C23.2988 13.3046 23.3214 13.2768 23.3446 13.2481C23.694 12.8202 24.0728 12.4227 24.4608 12.0303C24.5052 11.9851 24.5497 11.9399 24.5956 11.8934C24.8936 11.5951 25.2057 11.3242 25.5348 11.0614C25.5888 11.0167 25.6427 10.9719 25.6965 10.927C26.4962 10.2769 27.3686 9.70468 28.2845 9.23464C28.3293 9.2115 28.3741 9.18837 28.4203 9.16453C29.7547 8.48212 31.1417 7.99072 32.6085 7.69485C32.6655 7.68309 32.7226 7.67134 32.7814 7.65922C33.8738 7.44898 34.9717 7.38561 36.0816 7.39341C36.2007 7.39369 36.3199 7.3939 36.439 7.39405C36.7473 7.39461 37.0557 7.39605 37.364 7.39771C37.6807 7.39924 37.9975 7.39991 38.3142 7.40065C38.9318 7.40222 39.5494 7.40474 40.167 7.40788C40.1684 7.61365 40.1694 7.81941 40.17 8.02518C40.1703 8.09486 40.1707 8.16454 40.1711 8.23421C40.1997 12.4571 38.2955 16.4616 35.387 19.4308C35.0152 19.8074 34.6472 20.1712 34.2257 20.4914C34.1646 20.54 34.1034 20.5887 34.0424 20.6374C31.5348 22.6232 28.3777 23.9167 25.1767 24.0786C25.0452 24.0954 24.9607 24.1269 24.8474 24.1943C24.9169 24.2302 24.9169 24.2302 24.9878 24.2668C26.3839 24.9961 27.6327 26.0278 28.1863 27.5516C28.3632 28.1334 28.4104 28.7 28.4019 29.3047C28.4015 29.3831 28.4012 29.4615 28.401 29.54C28.4003 29.7431 28.3984 29.9461 28.3962 30.1492C28.3942 30.3577 28.3933 30.5663 28.3923 30.7749C28.3902 31.1816 28.3869 31.5883 28.3827 31.9951C28.1827 31.9967 27.9827 31.9977 27.7828 31.9985C27.727 31.999 27.6713 31.9995 27.6138 32C25.9196 32.0054 24.2237 31.573 22.7361 30.7608C22.7068 30.7453 22.6774 30.7298 22.6472 30.7138C21.6524 30.1875 20.6117 29.3433 20.1337 28.2922C20.1013 28.2922 20.0689 28.2922 20.0355 28.2922C19.9653 28.3958 19.9002 28.4995 19.836 28.6069C19.6369 28.9288 19.4148 29.2046 19.1517 29.4771C19.1198 29.5128 19.0879 29.5485 19.055 29.5853C17.6094 31.1479 15.1209 31.8913 13.0631 31.9951C12.8411 31.9989 12.6191 31.9983 12.397 31.9972C12.3087 31.997 12.3087 31.997 12.2186 31.9967C12.0746 31.9963 11.9305 31.9958 11.7865 31.9951C11.7831 31.5508 11.7805 31.1066 11.7789 30.6623C11.7781 30.4559 11.7771 30.2496 11.7754 30.0432C11.7738 29.8434 11.7729 29.6437 11.7725 29.4439C11.7723 29.3683 11.7717 29.2927 11.7709 29.2172C11.7562 27.7754 12.2885 26.6169 13.2841 25.5798C13.802 25.0586 14.4297 24.6765 15.0715 24.3297C15.2232 24.253 15.2232 24.253 15.3218 24.1449C15.2607 24.1377 15.2607 24.1377 15.1983 24.1303C15.0227 24.1089 14.8473 24.0865 14.6719 24.0637C14.5772 24.0515 14.4825 24.0395 14.3878 24.0277C12.6308 23.8067 10.939 23.3687 9.33146 22.6144C9.2667 22.5841 9.2667 22.5841 9.20063 22.5532C8.18004 22.0697 7.22053 21.4928 6.33629 20.7877C6.29243 20.7534 6.24857 20.7192 6.20337 20.6839C6.08254 20.5885 5.96375 20.491 5.84528 20.3927C5.77369 20.3344 5.7737 20.3344 5.70066 20.275C5.31457 19.9555 4.95668 19.6084 4.60241 19.254C4.5573 19.2091 4.51218 19.1642 4.4657 19.118C4.16817 18.8174 3.8977 18.503 3.63573 18.1709C3.5901 18.1149 3.54441 18.059 3.49859 18.0032C1.28178 15.2323 -0.0152602 11.6762 0.000135531 8.11586C0.000305295 8.04688 0.000459297 7.9779 0.000597109 7.90892C0.000991644 7.74191 0.00154463 7.57489 0.0022453 7.40788Z" fill="#A4BC42"/>
<path d="M21.8032 5.63049C21.8385 5.64055 21.8739 5.6506 21.9103 5.66096C22.7586 5.91202 23.5373 6.33829 24.2091 6.91416C24.2553 6.9526 24.3015 6.99104 24.3491 7.03065C24.9374 7.54051 25.509 8.24793 25.7803 8.98778C25.7293 9.02597 25.6783 9.06415 25.6258 9.10349C25.2466 9.38786 24.8686 9.6725 24.5037 9.97522C24.4571 10.0129 24.4105 10.0506 24.3625 10.0894C23.9566 10.4239 23.5834 10.7913 23.2117 11.1632C23.1866 11.1882 23.1615 11.2132 23.1356 11.239C22.7991 11.5746 22.4916 11.9225 22.196 12.2957C22.1194 12.3853 22.0427 12.4748 21.9658 12.5642C21.2541 13.4256 20.624 14.401 20.1337 15.4061C20.1013 15.4061 20.0689 15.4061 20.0355 15.4061C20.0139 15.361 19.9922 15.3159 19.9699 15.2694C19.5006 14.3228 18.8887 13.4069 18.2188 12.5919C18.1972 12.5657 18.1757 12.5394 18.1535 12.5123C17.6944 11.9544 17.2119 11.4225 16.7028 10.9102C16.6578 10.8643 16.6128 10.8185 16.5664 10.7712C16.2651 10.4676 15.9507 10.1919 15.6164 9.92584C15.5508 9.87231 15.4853 9.8187 15.4198 9.765C15.0846 9.49278 14.7475 9.22872 14.3889 8.98778C14.797 8.07707 15.4145 7.32137 16.2056 6.71667C16.2421 6.68797 16.2785 6.65927 16.3161 6.62969C17.1285 6.02132 18.0621 5.66142 19.0535 5.48238C19.1029 5.47328 19.1524 5.46418 19.2033 5.4548C20.0703 5.35736 20.9629 5.38937 21.8032 5.63049Z" fill="#A4BC42"/>
<path d="M8.34944 0.00209987C8.46593 0.00145455 8.58241 0.000986438 8.6989 0.000617272C8.73151 0.000418511 8.76412 0.00021975 8.79772 1.49649e-05C9.09354 -0.00068605 9.382 0.0232949 9.67517 0.060729C9.75359 0.0706394 9.75359 0.0706394 9.83359 0.0807501C12.6112 0.451523 15.4982 1.85603 17.2521 4.11539C17.2966 4.17571 17.3408 4.23624 17.3841 4.29745C17.2181 4.43831 17.0368 4.51287 16.8378 4.59368C16.1035 4.90626 15.4683 5.34042 14.8799 5.87735C14.8088 5.93912 14.8088 5.93912 14.7362 6.00213C14.0737 6.58538 13.5455 7.33053 13.1123 8.09908C12.8623 8.07077 12.6715 7.9509 12.4555 7.83062C11.5229 7.32786 10.5555 6.96336 9.55165 6.63509C9.5199 6.62455 9.48815 6.614 9.45544 6.60313C9.22315 6.52741 8.99071 6.47497 8.74939 6.43808C8.56779 6.32256 8.54474 6.12871 8.49674 5.92672C8.24711 4.79436 8.33223 3.58474 8.33932 2.43342C8.34085 2.15864 8.34151 1.88387 8.34225 1.6091C8.34381 1.07343 8.34631 0.537764 8.34944 0.00209987Z" fill="#A4BC42"/>
<path d="M31.3709 0.000882366C31.4048 0.000970248 31.4386 0.00105813 31.4735 0.00114868C31.5562 0.00137605 31.6389 0.00172533 31.7216 0.00209979C31.725 0.598761 31.7276 1.19542 31.7292 1.79209C31.73 2.06928 31.731 2.34647 31.7327 2.62367C31.7472 5.06846 31.7472 5.06846 31.5743 5.97609C31.5687 6.01345 31.5632 6.05081 31.5574 6.08931C31.538 6.19652 31.538 6.19652 31.4761 6.37107C31.3506 6.45043 31.3506 6.45043 31.1913 6.49296C31.1326 6.50969 31.074 6.52642 31.0136 6.54365C30.9824 6.55173 30.9513 6.5598 30.9191 6.56812C30.788 6.60217 30.6582 6.64003 30.5281 6.67775C30.4624 6.69677 30.3966 6.71561 30.3308 6.73427C29.2869 7.03145 28.2559 7.49849 27.3169 8.04258C27.2043 8.09908 27.2043 8.09908 27.057 8.09908C26.9837 7.99018 26.9203 7.88372 26.8575 7.76891C26.3636 6.90845 25.6925 6.12352 24.8965 5.53175C24.8478 5.49547 24.7991 5.45919 24.7488 5.42182C24.1192 4.96912 23.4625 4.61445 22.7361 4.34682C22.765 4.18425 22.8148 4.09941 22.9269 3.97981C22.9564 3.9481 22.986 3.91639 23.0164 3.88372C23.0484 3.8502 23.0805 3.81667 23.1135 3.78213C23.1467 3.74714 23.1799 3.71216 23.2141 3.67611C25.3132 1.48145 28.3001 -0.0144122 31.3709 0.000882366Z" fill="#A4BC42"/>
</svg>
