<svg width="26" height="20" viewBox="0 0 26 20" fill="none" xmlns="http://www.w3.org/2000/svg">
<path d="M0.876397 4.62992C1.29988 4.62776 1.72336 4.62612 2.14684 4.62513C2.34358 4.62465 2.54031 4.624 2.73705 4.62294C2.92765 4.62192 3.11825 4.62138 3.30886 4.62114C3.38082 4.62097 3.45277 4.62064 3.52473 4.62014C4.21147 4.61549 4.89478 4.66779 5.56884 4.80543C5.60781 4.81325 5.64679 4.82107 5.68694 4.82913C7.198 5.14014 8.62574 5.82 9.82967 6.78994C9.86074 6.81472 9.89182 6.83951 9.92384 6.86504C10.4645 7.30325 11.0002 7.80439 11.4186 8.36367C11.4487 8.40213 11.4788 8.44053 11.509 8.4789C12.3204 9.51931 12.9386 10.728 13.2872 12.0055C13.3044 12.0675 13.3239 12.1288 13.3437 12.19C13.3639 12.2002 13.3841 12.2104 13.4049 12.2208C13.4105 12.2 13.4162 12.1791 13.422 12.1576C13.8063 10.7534 14.4435 9.4599 15.3605 8.33281C15.3746 8.3154 15.3886 8.29798 15.4031 8.28003C15.6205 8.01261 15.8563 7.76418 16.0977 7.51895C16.1254 7.49071 16.1531 7.46247 16.1816 7.43337C16.3671 7.24694 16.5613 7.07764 16.7662 6.91337C16.7998 6.88544 16.8333 6.85745 16.8668 6.82936C17.3645 6.42309 17.9074 6.06543 18.4774 5.77165C18.5053 5.75719 18.5331 5.74273 18.5619 5.72783C19.3923 5.30133 20.2555 4.9942 21.1683 4.80928C21.2038 4.80193 21.2393 4.79459 21.2759 4.78701C21.9558 4.65561 22.639 4.61601 23.3298 4.62088C23.4039 4.62106 23.478 4.62119 23.5522 4.62128C23.7441 4.62163 23.9359 4.62253 24.1278 4.62357C24.3249 4.62453 24.522 4.62494 24.7192 4.6254C25.1035 4.62639 25.4879 4.62796 25.8722 4.62992C25.8731 4.75853 25.8737 4.88713 25.8741 5.01574C25.8743 5.05929 25.8745 5.10283 25.8748 5.14638C25.8926 7.78567 24.7075 10.2885 22.8975 12.1442C22.6661 12.3796 22.4371 12.607 22.1748 12.8071C22.1367 12.8375 22.0987 12.8679 22.0607 12.8984C20.5001 14.1395 18.5354 14.9479 16.5433 15.0491C16.4614 15.0596 16.4088 15.0793 16.3384 15.1214C16.3816 15.1439 16.3816 15.1439 16.4257 15.1668C17.2946 15.6226 18.0717 16.2674 18.4162 17.2198C18.5264 17.5834 18.5557 17.9375 18.5504 18.3154C18.5502 18.3644 18.55 18.4135 18.5499 18.4625C18.5494 18.5894 18.5482 18.7163 18.5469 18.8432C18.5456 18.9736 18.5451 19.1039 18.5444 19.2343C18.5431 19.4885 18.5411 19.7427 18.5385 19.9969C18.414 19.9979 18.2896 19.9985 18.1651 19.9991C18.1304 19.9994 18.0957 19.9997 18.06 20C17.0056 20.0034 15.9502 19.7331 15.0244 19.2255C15.0061 19.2158 14.9879 19.2061 14.9691 19.1961C14.35 18.8672 13.7023 18.3396 13.4049 17.6826C13.3847 17.6826 13.3645 17.6826 13.3437 17.6826C13.3 17.7474 13.2595 17.8122 13.2196 17.8793C13.0957 18.0805 12.9575 18.2529 12.7937 18.4232C12.7739 18.4455 12.754 18.4678 12.7336 18.4908C11.8339 19.4675 10.2852 19.932 9.00462 19.9969C8.86642 19.9993 8.72828 19.9989 8.59007 19.9982C8.5351 19.9981 8.5351 19.9981 8.47903 19.998C8.38939 19.9977 8.29976 19.9974 8.21013 19.9969C8.20799 19.7193 8.20637 19.4416 8.20538 19.1639C8.20491 19.035 8.20426 18.906 8.20322 18.777C8.20221 18.6522 8.20167 18.5273 8.20143 18.4025C8.20127 18.3552 8.20094 18.308 8.20044 18.2607C8.19128 17.3596 8.5225 16.6356 9.14213 15.9874C9.46442 15.6616 9.85508 15.4228 10.2545 15.2061C10.3489 15.1581 10.3489 15.1581 10.4103 15.0906C10.3722 15.0861 10.3722 15.0861 10.3334 15.0814C10.2241 15.068 10.115 15.0541 10.0058 15.0398C9.94689 15.0322 9.88794 15.0247 9.82898 15.0173C8.73556 14.8792 7.6827 14.6054 6.68227 14.134C6.64197 14.1151 6.64197 14.1151 6.60085 14.0957C5.9657 13.7935 5.36857 13.433 4.81828 12.9923C4.79098 12.9709 4.76369 12.9495 4.73556 12.9274C4.66036 12.8678 4.58644 12.8069 4.51271 12.7454C4.46816 12.709 4.46816 12.709 4.42271 12.6719C4.18243 12.4722 3.9597 12.2553 3.73923 12.0338C3.71115 12.0057 3.68308 11.9776 3.65415 11.9487C3.46899 11.7609 3.30067 11.5644 3.13763 11.3568C3.10924 11.3218 3.0808 11.2869 3.05229 11.252C1.67269 9.5202 0.865503 7.29764 0.875084 5.07241C0.87519 5.0293 0.875286 4.98619 0.875372 4.94308C0.875617 4.83869 0.875961 4.73431 0.876397 4.62992Z" fill="black"/>
<path d="M14.4438 3.51906C14.4658 3.52534 14.4878 3.53163 14.5105 3.5381C15.0384 3.69501 15.523 3.96143 15.9411 4.32135C15.9699 4.34538 15.9986 4.3694 16.0282 4.39416C16.3943 4.71282 16.7501 5.15496 16.9189 5.61736C16.8872 5.64123 16.8554 5.66509 16.8227 5.68968C16.5868 5.86741 16.3516 6.04531 16.1245 6.23451C16.0955 6.25806 16.0665 6.28161 16.0366 6.30587C15.784 6.51493 15.5517 6.74454 15.3204 6.97702C15.3048 6.99265 15.2891 7.00828 15.273 7.02438C15.0636 7.23414 14.8722 7.45155 14.6883 7.68481C14.6406 7.74082 14.5929 7.79676 14.545 7.8526C14.1021 8.39099 13.71 9.00065 13.4049 9.62883C13.3847 9.62883 13.3645 9.62883 13.3437 9.62883C13.3303 9.60062 13.3168 9.57242 13.3029 9.54337C13.0108 8.95176 12.6301 8.37934 12.2131 7.86995C12.1997 7.85354 12.1863 7.83713 12.1725 7.82022C11.8868 7.47147 11.5865 7.13908 11.2697 6.81887C11.2417 6.79021 11.2137 6.76155 11.1848 6.73203C10.9973 6.54228 10.8017 6.36993 10.5936 6.20365C10.5528 6.17019 10.512 6.13669 10.4712 6.10312C10.2626 5.93299 10.0528 5.76795 9.82967 5.61736C10.0836 5.04817 10.4679 4.57586 10.9603 4.19792C10.983 4.17998 11.0057 4.16204 11.029 4.14356C11.5346 3.76332 12.1156 3.53839 12.7326 3.42649C12.7634 3.4208 12.7941 3.41511 12.8258 3.40925C13.3654 3.34835 13.9209 3.36835 14.4438 3.51906Z" fill="black"/>
<path d="M6.07113 0.00131242C6.14362 0.000909095 6.21611 0.000616523 6.28861 0.000385795C6.3089 0.000261569 6.3292 0.000137343 6.3501 9.35308e-06C6.53421 -0.000428781 6.71372 0.0145593 6.89617 0.0379556C6.94497 0.0441496 6.94497 0.0441496 6.99476 0.0504688C8.72333 0.282202 10.52 1.16002 11.6115 2.57212C11.6392 2.60982 11.6667 2.64765 11.6937 2.68591C11.5904 2.77394 11.4775 2.82054 11.3537 2.87105C10.8967 3.06641 10.5014 3.33776 10.1352 3.67334C10.091 3.71195 10.091 3.71195 10.0458 3.75133C9.63353 4.11586 9.3048 4.58158 9.03518 5.06193C8.87962 5.04423 8.7609 4.96931 8.62648 4.89414C8.04604 4.57991 7.44405 4.3521 6.8193 4.14693C6.79954 4.14034 6.77978 4.13375 6.75943 4.12696C6.61486 4.07963 6.47021 4.04686 6.32003 4.0238C6.20701 3.9516 6.19267 3.83045 6.1628 3.7042C6.00744 2.99648 6.06042 2.24046 6.06483 1.52089C6.06578 1.34915 6.06619 1.17742 6.06665 1.00568C6.06762 0.670891 6.06918 0.336102 6.07113 0.00131242Z" fill="black"/>
<path d="M20.3981 0.000551479C20.4192 0.000606405 20.4403 0.000661332 20.462 0.000717923C20.5135 0.000860033 20.5649 0.00107833 20.6164 0.00131237C20.6185 0.374225 20.6201 0.747137 20.6211 1.12005C20.6216 1.2933 20.6222 1.46655 20.6233 1.63979C20.6323 3.16779 20.6323 3.16779 20.5247 3.73506C20.5212 3.75841 20.5178 3.78176 20.5142 3.80582C20.5021 3.87282 20.5021 3.87282 20.4636 3.98192C20.3855 4.03152 20.3855 4.03152 20.2863 4.0581C20.2498 4.06855 20.2134 4.07901 20.1758 4.08978C20.1564 4.09483 20.137 4.09988 20.117 4.10507C20.0354 4.12636 19.9546 4.15002 19.8736 4.17359C19.8327 4.18548 19.7918 4.19726 19.7509 4.20892C19.1012 4.39466 18.4596 4.68655 17.8752 5.02661C17.8051 5.06193 17.8051 5.06193 17.7134 5.06193C17.6678 4.99386 17.6284 4.92733 17.5893 4.85557C17.2819 4.31778 16.8643 3.8272 16.3689 3.45734C16.3386 3.43467 16.3083 3.412 16.277 3.38864C15.8851 3.1057 15.4765 2.88403 15.0244 2.71676C15.0424 2.61516 15.0734 2.56213 15.1432 2.48738C15.1615 2.46756 15.1799 2.44774 15.1988 2.42733C15.2188 2.40637 15.2387 2.38542 15.2593 2.36383C15.2799 2.34197 15.3006 2.3201 15.3219 2.29757C16.6282 0.925904 18.4871 -0.00900763 20.3981 0.000551479Z" fill="black"/>
</svg>
