
<svg width="19" height="24" viewBox="0 0 19 24" fill="none" xmlns="http://www.w3.org/2000/svg">
<path fill-rule="evenodd" clip-rule="evenodd" d="M2.01892 7.93022C2.01892 5.99635 2.78715 4.14168 4.1546 2.77423C5.52205 1.40678 7.37672 0.63855 9.31059 0.63855C11.2445 0.63855 13.0991 1.40678 14.4666 2.77423C15.834 4.14168 16.6023 5.99635 16.6023 7.93022V11.851L18.5002 15.6469C18.5875 15.8216 18.6288 16.0157 18.62 16.2109C18.6112 16.406 18.5527 16.5957 18.45 16.7618C18.3473 16.928 18.2038 17.0651 18.0332 17.1602C17.8626 17.2553 17.6705 17.3052 17.4752 17.3052H13.346C13.1143 18.1992 12.5923 18.991 11.8619 19.5562C11.1315 20.1214 10.2341 20.4281 9.31059 20.4281C8.38705 20.4281 7.48965 20.1214 6.75927 19.5562C6.02889 18.991 5.50688 18.1992 5.27517 17.3052H1.146C0.950667 17.3052 0.758567 17.2553 0.587948 17.1602C0.417328 17.0651 0.273855 16.928 0.171154 16.7618C0.0684532 16.5957 0.00993512 16.406 0.00115759 16.2109C-0.00761993 16.0157 0.0336346 15.8216 0.121003 15.6469L2.01892 11.851V7.93022ZM7.50642 17.3052C7.68928 17.6219 7.95227 17.8849 8.26896 18.0677C8.58566 18.2505 8.9449 18.3468 9.31059 18.3468C9.67627 18.3468 10.0355 18.2505 10.3522 18.0677C10.6689 17.8849 10.9319 17.6219 11.1148 17.3052H7.50642ZM9.31059 2.72188C7.92925 2.72188 6.60449 3.27062 5.62774 4.24737C4.65099 5.22412 4.10225 6.54888 4.10225 7.93022V11.851C4.10223 12.1743 4.02698 12.4931 3.88246 12.7823L2.66371 15.2219H15.9585L14.7398 12.7823C14.5949 12.4932 14.5193 12.1744 14.5189 11.851V7.93022C14.5189 6.54888 13.9702 5.22412 12.9934 4.24737C12.0167 3.27062 10.6919 2.72188 9.31059 2.72188Z" fill="black"/>
</svg>
