<svg width="22" height="22" viewBox="0 0 22 22" fill="none" xmlns="http://www.w3.org/2000/svg">
<path d="M16.8416 0C16.5285 4.86658e-05 16.2184 0.0624647 15.9297 0.183604C15.6409 0.304743 15.3791 0.482179 15.1597 0.705551L2.21068 13.5862C2.1149 13.6821 2.04559 13.8012 2.00948 13.9319L0.0289267 21.0031C-0.00852868 21.1373 -0.00962944 21.279 0.0257372 21.4137C0.0611039 21.5485 0.131666 21.6714 0.230195 21.7699C0.328723 21.8684 0.451675 21.9389 0.586452 21.9743C0.721229 22.0096 0.862985 22.0085 0.997197 21.9711L8.0706 19.9911C8.2013 19.955 8.32043 19.8857 8.41641 19.79L21.301 6.84495L21.3041 6.84337C21.5247 6.62431 21.6997 6.36381 21.8191 6.07687C21.9385 5.78993 22 5.48221 22 5.17142C22 4.86064 21.9385 4.55292 21.8191 4.26598C21.6997 3.97903 21.5247 3.71854 21.3041 3.49947L21.301 3.4979L18.5251 0.707123C18.3056 0.483277 18.0437 0.305442 17.7546 0.184024C17.4655 0.0626066 17.1552 4.47767e-05 16.8416 0Z" fill="black"/>
</svg>
