<svg width="27" height="24" viewBox="0 0 27 24" fill="none" xmlns="http://www.w3.org/2000/svg">
<path d="M18.1579 0.166687H0.125V23.8334H23.9583V5.92658L18.1579 0.166687ZM3.91131 2.85726H11.2132C11.8555 2.85726 12.3754 3.37447 12.3754 4.01138C12.3754 4.64829 11.8546 5.1655 11.2132 5.1655H3.91131C3.26901 5.1655 2.74906 4.64829 2.74906 4.01138C2.74906 3.37447 3.26991 2.85726 3.91131 2.85726ZM20.7774 19.9422C20.5211 20.036 20.2224 20.0047 19.9597 19.8565C18.757 19.1776 17.5687 19.4375 16.1932 19.7385C15.4457 19.902 14.645 20.0771 13.8228 20.0771C13.0744 20.0771 12.3079 19.9324 11.5442 19.5027C11.5172 19.4875 11.4911 19.4714 11.4641 19.4527C10.4404 19.1016 9.36993 19.3312 8.23827 19.5733C6.81154 19.8788 5.1932 20.2245 3.59196 19.3303C3.16916 19.0972 2.91548 18.5246 2.91548 18.1074C2.91548 17.6572 3.19975 17.4848 3.36977 17.4223C3.62525 17.3276 3.9239 17.357 4.18928 17.5035C5.39381 18.1744 6.58305 17.918 7.9585 17.6215C9.38702 17.3133 11.0054 16.964 12.6075 17.8582C12.6354 17.8734 12.6615 17.8903 12.6885 17.9091C13.7095 18.2593 14.7791 18.0234 15.9098 17.7742C17.3384 17.4589 18.9576 17.1025 20.5615 18.0038C20.9843 18.2405 21.2371 18.822 21.2371 19.2472C21.2371 19.7082 20.9493 19.8815 20.7774 19.944V19.9422ZM20.7774 16.3307C20.522 16.4245 20.2242 16.3941 19.9615 16.2485C18.7597 15.5785 17.5723 15.8456 16.1959 16.1556C15.4376 16.3262 14.6243 16.5093 13.7886 16.5093C13.0519 16.5093 12.2962 16.3673 11.5442 15.9483C11.5181 15.934 11.4911 15.918 11.465 15.8992C10.4422 15.5553 9.37263 15.7911 8.24096 16.0403C6.81424 16.3548 5.1959 16.7112 3.59286 15.826C3.16916 15.5946 2.91458 15.0229 2.91458 14.6048C2.91458 14.1546 3.19885 13.9813 3.36797 13.9188C3.62255 13.8241 3.92031 13.8527 4.18568 13.9965C5.38931 14.6593 6.57765 14.3949 7.954 14.0894C9.38162 13.7723 11.0009 13.4123 12.6048 14.2967C12.6327 14.3118 12.6597 14.3288 12.6858 14.3467C13.7059 14.6897 14.7755 14.4476 15.9053 14.1912C17.3339 13.867 18.9531 13.4998 20.5588 14.3913C20.9834 14.6263 21.2362 15.2069 21.2362 15.633C21.2362 16.0939 20.9484 16.2681 20.7774 16.3307ZM20.7783 12.7522C20.5229 12.846 20.226 12.8165 19.9633 12.6718C18.7624 12.0063 17.5741 12.2769 16.1986 12.5914C15.4349 12.7656 14.6154 12.9532 13.7733 12.9532C13.042 12.9532 12.2926 12.812 11.5469 12.3993C11.5199 12.385 11.4938 12.3689 11.4677 12.3502C10.4458 12.0098 9.37533 12.2492 8.24366 12.502C6.81604 12.8209 5.1986 13.1827 3.59466 12.302C3.17006 12.0715 2.91548 11.5007 2.91548 11.0817C2.91548 10.6315 3.19975 10.4582 3.36887 10.3948C3.62345 10.3001 3.92121 10.3278 4.18568 10.4707C5.38841 11.1291 6.57675 10.8611 7.9531 10.5511C9.38162 10.2295 11 9.86418 12.6048 10.7441C12.6318 10.7592 12.6588 10.7753 12.6858 10.7941C13.705 11.1335 14.7746 10.8879 15.9044 10.6279C17.333 10.2992 18.9531 9.92671 20.5588 10.8146C20.9834 11.0487 21.2371 11.6293 21.2371 12.0545C21.2371 12.5154 20.9502 12.6896 20.7783 12.7531V12.7522ZM20.7783 9.17456C20.5238 9.26836 20.2269 9.23977 19.9642 9.09595C18.7642 8.43403 17.5758 8.70916 16.2004 9.02806C15.4313 9.20583 14.6055 9.39699 13.7572 9.39699C13.0312 9.39699 12.2882 9.25674 11.5478 8.84941C11.5217 8.83511 11.4947 8.81904 11.4686 8.80117C10.4467 8.4644 9.37713 8.70738 8.24546 8.96375C6.81784 9.28712 5.2004 9.65426 3.59646 8.77884C3.17006 8.54748 2.91548 7.97756 2.91548 7.55951C2.91548 7.10929 3.19975 6.93599 3.36887 6.87257C3.62255 6.77788 3.92031 6.80468 4.18478 6.94671C5.38751 7.6006 6.57495 7.32904 7.9513 7.0146C9.37893 6.68766 10.9973 6.31784 12.603 7.19326C12.63 7.20845 12.657 7.22452 12.684 7.24239C13.7032 7.57826 14.7719 7.32904 15.9026 7.06552C17.3312 6.73232 18.9513 6.35447 20.5579 7.23703C20.9825 7.46928 21.2371 8.04992 21.2371 8.47601C21.2371 8.93695 20.9502 9.11114 20.7783 9.17456Z" fill="black"/>
<path d="M18.1579 0.166687V5.92658H23.9583L18.1579 0.166687Z" fill="#E5DFAA"/>
</svg>

