<svg width="79" height="78" viewBox="0 0 79 78" fill="none" xmlns="http://www.w3.org/2000/svg">
<mask id="path-1-inside-1_196_1258" fill="white">
<path d="M0.976651 1.13405C0.941256 1.1639 0.906828 1.19374 0.873357 1.22359C0.814635 1.28255 0.755915 1.33787 0.697193 1.38954C-0.317705 2.40258 -0.224561 3.41563 0.976651 4.42868C2.27885 5.52689 2.27885 6.6251 0.976651 7.72331C-0.32555 8.82152 -0.32555 9.91973 0.976651 11.0179C2.27885 12.1161 2.27885 13.2144 0.976651 14.3126C-0.32555 15.4108 -0.32555 16.509 0.976651 17.6072C2.27885 18.7054 2.27885 19.8036 0.976651 20.9018C-0.32555 22 -0.32555 23.0983 0.976651 24.1965C2.27885 25.2947 2.27885 26.3929 0.976651 27.4911C-0.32555 28.5893 -0.32555 29.6875 0.976651 30.7857C2.27885 31.8839 2.27885 32.9822 0.976651 34.0804C-0.325547 35.1786 -0.325547 36.2768 0.976654 37.375C2.27885 38.4732 2.27885 39.5714 0.976654 40.6696C-0.325547 41.7678 -0.325547 42.8661 0.976654 43.9643C2.27885 45.0625 2.27885 46.1607 0.976654 47.2589C-0.325547 48.3571 -0.325547 49.4553 0.976654 50.5535C2.27885 51.6517 2.27885 52.75 0.976654 53.8482C-0.325547 54.9464 -0.325547 56.0446 0.976654 57.1428C2.27885 58.241 2.27885 59.3392 0.976654 60.4374C-0.325547 61.5356 -0.325547 62.6339 0.976654 63.7321C2.27885 64.8303 2.27885 65.9285 0.976654 67.0267C-0.325547 68.1249 -0.325547 69.2231 0.976654 70.3213C2.27885 71.4195 2.27885 72.5178 0.976654 73.616C-0.14988 74.566 -0.301852 75.5161 0.520745 76.4661C0.7088 76.6083 0.89686 76.7877 1.08492 77.0046C1.24496 77.1477 1.38288 77.2909 1.49867 77.434C2.47434 78.3052 3.45001 78.1707 4.42568 77.0304C5.53185 75.7376 6.63804 75.7376 7.74421 77.0304C8.85039 78.3232 9.95657 78.3232 11.0627 77.0304C12.1689 75.7376 13.2751 75.7376 14.3813 77.0304C15.4875 78.3232 16.5936 78.3232 17.6998 77.0304C18.806 75.7376 19.9122 75.7376 21.0184 77.0304C22.1245 78.3232 23.2307 78.3232 24.3369 77.0304C25.4431 75.7376 26.5493 75.7376 27.6554 77.0304C28.7616 78.3232 29.8678 78.3232 30.974 77.0304C32.0802 75.7376 33.1863 75.7376 34.2925 77.0304C35.3987 78.3232 36.5049 78.3232 37.611 77.0304C38.7172 75.7376 39.8234 75.7376 40.9296 77.0304C42.0358 78.3232 43.1419 78.3232 44.2481 77.0304C45.3543 75.7376 46.4605 75.7376 47.5667 77.0304C48.6728 78.3232 49.779 78.3232 50.8852 77.0304C51.9914 75.7376 53.0976 75.7376 54.2037 77.0304C55.3099 78.3232 56.4161 78.3232 57.5223 77.0304C58.6285 75.7376 59.7346 75.7376 60.8408 77.0304C61.947 78.3232 63.0532 78.3232 64.1593 77.0304C65.2655 75.7376 66.3717 75.7376 67.4779 77.0304C68.5841 78.3232 69.6902 78.3232 70.7964 77.0304C71.9026 75.7376 73.0088 75.7376 74.115 77.0304C75.2211 78.3232 76.3273 78.3232 77.4335 77.0304C77.9389 76.4397 77.6978 76.8149 78.1319 76.1685C78.6164 75.447 78.8222 74.7206 78.0233 74.0469C76.7212 72.9487 76.7212 71.8505 78.0234 70.7523C79.3256 69.6541 79.3256 68.5558 78.0234 67.4576C76.7212 66.3594 76.7212 65.2612 78.0234 64.163C79.3256 63.0648 79.3256 61.9666 78.0234 60.8684C76.7212 59.7702 76.7212 58.672 78.0234 57.5737C79.3256 56.4755 79.3256 55.3773 78.0234 54.2791C76.7212 53.1809 76.7212 52.0827 78.0234 50.9845C79.3256 49.8863 79.3256 48.7881 78.0234 47.6898C76.7212 46.5916 76.7212 45.4934 78.0234 44.3952C79.3256 43.297 79.3256 42.1988 78.0234 41.1006C76.7212 40.0024 76.7212 38.9042 78.0234 37.806C79.3256 36.7077 79.3256 35.6095 78.0234 34.5113C76.7212 33.4131 76.7212 32.3149 78.0234 31.2167C79.3256 30.1185 79.3256 29.0202 78.0234 27.922C76.7212 26.8238 76.7212 25.7256 78.0234 24.6274C79.3256 23.5292 79.3256 22.431 78.0234 21.3328C76.7212 20.2346 76.7212 19.1364 78.0234 18.0381C79.3256 16.9399 79.3256 15.8417 78.0234 14.7435C76.7212 13.6453 76.7212 12.5471 78.0234 11.4489C79.3256 10.3507 79.3256 9.25246 78.0234 8.15425C76.7212 7.05604 76.7212 5.95783 78.0234 4.85962C79.3256 3.76141 79.3256 2.6632 78.0234 1.56499C77.8439 1.41363 77.6891 1.26228 77.5592 1.11093C77.5173 1.06568 77.4754 1.01858 77.4335 0.969617C76.3273 -0.323204 75.2211 -0.323204 74.115 0.969617C73.0088 2.26243 71.9026 2.26243 70.7964 0.969617C69.6902 -0.323204 68.5841 -0.323204 67.4779 0.969617C66.3717 2.26243 65.2655 2.26243 64.1593 0.969617C63.0532 -0.323204 61.947 -0.323204 60.8408 0.969617C59.7346 2.26243 58.6285 2.26243 57.5223 0.969617C56.4161 -0.323204 55.3099 -0.323204 54.2037 0.969617C53.0976 2.26243 51.9914 2.26243 50.8852 0.969617C49.779 -0.323204 48.6728 -0.323204 47.5667 0.969617C46.4605 2.26243 45.3543 2.26243 44.2481 0.969617C43.1419 -0.323204 42.0358 -0.323204 40.9296 0.969617C39.8234 2.26243 38.7172 2.26243 37.611 0.969617C36.5049 -0.323204 35.3987 -0.323204 34.2925 0.969617C33.1863 2.26243 32.0802 2.26243 30.974 0.969617C29.8678 -0.323204 28.7616 -0.323204 27.6554 0.969617C26.5493 2.26243 25.4431 2.26243 24.3369 0.969617C23.2307 -0.323204 22.1245 -0.323204 21.0184 0.969617C19.9122 2.26243 18.806 2.26243 17.6998 0.969617C16.5936 -0.323204 15.4875 -0.323204 14.3813 0.969617C13.2751 2.26243 12.1689 2.26243 11.0627 0.969617C9.95657 -0.323204 8.85039 -0.323204 7.74421 0.969617C6.63804 2.26243 5.53185 2.26243 4.42568 0.969617C3.48284 -0.132298 2.54001 -0.295015 1.59718 0.481466C1.44143 0.698991 1.23458 0.916522 0.976651 1.13405Z"/>
</mask>
<path d="M0.976651 1.13405C0.941256 1.1639 0.906828 1.19374 0.873357 1.22359C0.814635 1.28255 0.755915 1.33787 0.697193 1.38954C-0.317705 2.40258 -0.224561 3.41563 0.976651 4.42868C2.27885 5.52689 2.27885 6.6251 0.976651 7.72331C-0.32555 8.82152 -0.32555 9.91973 0.976651 11.0179C2.27885 12.1161 2.27885 13.2144 0.976651 14.3126C-0.32555 15.4108 -0.32555 16.509 0.976651 17.6072C2.27885 18.7054 2.27885 19.8036 0.976651 20.9018C-0.32555 22 -0.32555 23.0983 0.976651 24.1965C2.27885 25.2947 2.27885 26.3929 0.976651 27.4911C-0.32555 28.5893 -0.32555 29.6875 0.976651 30.7857C2.27885 31.8839 2.27885 32.9822 0.976651 34.0804C-0.325547 35.1786 -0.325547 36.2768 0.976654 37.375C2.27885 38.4732 2.27885 39.5714 0.976654 40.6696C-0.325547 41.7678 -0.325547 42.8661 0.976654 43.9643C2.27885 45.0625 2.27885 46.1607 0.976654 47.2589C-0.325547 48.3571 -0.325547 49.4553 0.976654 50.5535C2.27885 51.6517 2.27885 52.75 0.976654 53.8482C-0.325547 54.9464 -0.325547 56.0446 0.976654 57.1428C2.27885 58.241 2.27885 59.3392 0.976654 60.4374C-0.325547 61.5356 -0.325547 62.6339 0.976654 63.7321C2.27885 64.8303 2.27885 65.9285 0.976654 67.0267C-0.325547 68.1249 -0.325547 69.2231 0.976654 70.3213C2.27885 71.4195 2.27885 72.5178 0.976654 73.616C-0.14988 74.566 -0.301852 75.5161 0.520745 76.4661C0.7088 76.6083 0.89686 76.7877 1.08492 77.0046C1.24496 77.1477 1.38288 77.2909 1.49867 77.434C2.47434 78.3052 3.45001 78.1707 4.42568 77.0304C5.53185 75.7376 6.63804 75.7376 7.74421 77.0304C8.85039 78.3232 9.95657 78.3232 11.0627 77.0304C12.1689 75.7376 13.2751 75.7376 14.3813 77.0304C15.4875 78.3232 16.5936 78.3232 17.6998 77.0304C18.806 75.7376 19.9122 75.7376 21.0184 77.0304C22.1245 78.3232 23.2307 78.3232 24.3369 77.0304C25.4431 75.7376 26.5493 75.7376 27.6554 77.0304C28.7616 78.3232 29.8678 78.3232 30.974 77.0304C32.0802 75.7376 33.1863 75.7376 34.2925 77.0304C35.3987 78.3232 36.5049 78.3232 37.611 77.0304C38.7172 75.7376 39.8234 75.7376 40.9296 77.0304C42.0358 78.3232 43.1419 78.3232 44.2481 77.0304C45.3543 75.7376 46.4605 75.7376 47.5667 77.0304C48.6728 78.3232 49.779 78.3232 50.8852 77.0304C51.9914 75.7376 53.0976 75.7376 54.2037 77.0304C55.3099 78.3232 56.4161 78.3232 57.5223 77.0304C58.6285 75.7376 59.7346 75.7376 60.8408 77.0304C61.947 78.3232 63.0532 78.3232 64.1593 77.0304C65.2655 75.7376 66.3717 75.7376 67.4779 77.0304C68.5841 78.3232 69.6902 78.3232 70.7964 77.0304C71.9026 75.7376 73.0088 75.7376 74.115 77.0304C75.2211 78.3232 76.3273 78.3232 77.4335 77.0304C77.9389 76.4397 77.6978 76.8149 78.1319 76.1685C78.6164 75.447 78.8222 74.7206 78.0233 74.0469C76.7212 72.9487 76.7212 71.8505 78.0234 70.7523C79.3256 69.6541 79.3256 68.5558 78.0234 67.4576C76.7212 66.3594 76.7212 65.2612 78.0234 64.163C79.3256 63.0648 79.3256 61.9666 78.0234 60.8684C76.7212 59.7702 76.7212 58.672 78.0234 57.5737C79.3256 56.4755 79.3256 55.3773 78.0234 54.2791C76.7212 53.1809 76.7212 52.0827 78.0234 50.9845C79.3256 49.8863 79.3256 48.7881 78.0234 47.6898C76.7212 46.5916 76.7212 45.4934 78.0234 44.3952C79.3256 43.297 79.3256 42.1988 78.0234 41.1006C76.7212 40.0024 76.7212 38.9042 78.0234 37.806C79.3256 36.7077 79.3256 35.6095 78.0234 34.5113C76.7212 33.4131 76.7212 32.3149 78.0234 31.2167C79.3256 30.1185 79.3256 29.0202 78.0234 27.922C76.7212 26.8238 76.7212 25.7256 78.0234 24.6274C79.3256 23.5292 79.3256 22.431 78.0234 21.3328C76.7212 20.2346 76.7212 19.1364 78.0234 18.0381C79.3256 16.9399 79.3256 15.8417 78.0234 14.7435C76.7212 13.6453 76.7212 12.5471 78.0234 11.4489C79.3256 10.3507 79.3256 9.25246 78.0234 8.15425C76.7212 7.05604 76.7212 5.95783 78.0234 4.85962C79.3256 3.76141 79.3256 2.6632 78.0234 1.56499C77.8439 1.41363 77.6891 1.26228 77.5592 1.11093C77.5173 1.06568 77.4754 1.01858 77.4335 0.969617C76.3273 -0.323204 75.2211 -0.323204 74.115 0.969617C73.0088 2.26243 71.9026 2.26243 70.7964 0.969617C69.6902 -0.323204 68.5841 -0.323204 67.4779 0.969617C66.3717 2.26243 65.2655 2.26243 64.1593 0.969617C63.0532 -0.323204 61.947 -0.323204 60.8408 0.969617C59.7346 2.26243 58.6285 2.26243 57.5223 0.969617C56.4161 -0.323204 55.3099 -0.323204 54.2037 0.969617C53.0976 2.26243 51.9914 2.26243 50.8852 0.969617C49.779 -0.323204 48.6728 -0.323204 47.5667 0.969617C46.4605 2.26243 45.3543 2.26243 44.2481 0.969617C43.1419 -0.323204 42.0358 -0.323204 40.9296 0.969617C39.8234 2.26243 38.7172 2.26243 37.611 0.969617C36.5049 -0.323204 35.3987 -0.323204 34.2925 0.969617C33.1863 2.26243 32.0802 2.26243 30.974 0.969617C29.8678 -0.323204 28.7616 -0.323204 27.6554 0.969617C26.5493 2.26243 25.4431 2.26243 24.3369 0.969617C23.2307 -0.323204 22.1245 -0.323204 21.0184 0.969617C19.9122 2.26243 18.806 2.26243 17.6998 0.969617C16.5936 -0.323204 15.4875 -0.323204 14.3813 0.969617C13.2751 2.26243 12.1689 2.26243 11.0627 0.969617C9.95657 -0.323204 8.85039 -0.323204 7.74421 0.969617C6.63804 2.26243 5.53185 2.26243 4.42568 0.969617C3.48284 -0.132298 2.54001 -0.295015 1.59718 0.481466C1.44143 0.698991 1.23458 0.916522 0.976651 1.13405Z" fill="#F6F4E4" stroke="black" stroke-width="2" mask="url(#path-1-inside-1_196_1258)"/>
</svg>
