<svg width="1578" height="1578" viewBox="0 0 1578 1578" fill="none" xmlns="http://www.w3.org/2000/svg">
<path d="M384.637 1124.32C440.525 1081.59 502.987 1047.89 572.025 1023.23C641.062 998.578 713.387 986.25 789 986.25C864.612 986.25 936.937 998.578 1005.97 1023.23C1075.01 1047.89 1137.47 1081.59 1193.36 1124.32C1231.72 1079.4 1261.58 1028.44 1282.95 971.456C1304.32 914.473 1315 853.654 1315 789C1315 643.254 1263.77 519.151 1161.31 416.691C1058.85 314.23 934.746 263 789 263C643.254 263 519.151 314.23 416.691 416.691C314.23 519.151 263 643.254 263 789C263 853.654 273.684 914.473 295.053 971.456C316.422 1028.44 346.283 1079.4 384.637 1124.32ZM789 854.75C724.346 854.75 669.828 832.559 625.447 788.178C581.066 743.797 558.875 689.279 558.875 624.625C558.875 559.971 581.066 505.453 625.447 461.072C669.828 416.691 724.346 394.5 789 394.5C853.654 394.5 908.172 416.691 952.553 461.072C996.934 505.453 1019.12 559.971 1019.12 624.625C1019.12 689.279 996.934 743.797 952.553 788.178C908.172 832.559 853.654 854.75 789 854.75ZM789 1446.5C698.046 1446.5 612.571 1429.24 532.575 1394.72C452.579 1360.2 382.994 1313.36 323.819 1254.18C264.644 1195.01 217.797 1125.42 183.278 1045.42C148.759 965.429 131.5 879.954 131.5 789C131.5 698.046 148.759 612.571 183.278 532.575C217.797 452.579 264.644 382.994 323.819 323.819C382.994 264.644 452.579 217.797 532.575 183.278C612.571 148.759 698.046 131.5 789 131.5C879.954 131.5 965.429 148.759 1045.42 183.278C1125.42 217.797 1195.01 264.644 1254.18 323.819C1313.36 382.994 1360.2 452.579 1394.72 532.575C1429.24 612.571 1446.5 698.046 1446.5 789C1446.5 879.954 1429.24 965.429 1394.72 1045.42C1360.2 1125.42 1313.36 1195.01 1254.18 1254.18C1195.01 1313.36 1125.42 1360.2 1045.42 1394.72C965.429 1429.24 879.954 1446.5 789 1446.5ZM789 1315C847.079 1315 901.871 1306.51 953.375 1289.52C1004.88 1272.54 1052 1248.15 1094.74 1216.37C1052 1184.6 1004.88 1160.21 953.375 1143.23C901.871 1126.24 847.079 1117.75 789 1117.75C730.921 1117.75 676.129 1126.24 624.625 1143.23C573.121 1160.21 526 1184.6 483.262 1216.37C526 1248.15 573.121 1272.54 624.625 1289.52C676.129 1306.51 730.921 1315 789 1315ZM789 723.25C817.492 723.25 841.052 713.935 859.681 695.306C878.31 676.677 887.625 653.117 887.625 624.625C887.625 596.133 878.31 572.573 859.681 553.944C841.052 535.315 817.492 526 789 526C760.508 526 736.948 535.315 718.319 553.944C699.69 572.573 690.375 596.133 690.375 624.625C690.375 653.117 699.69 676.677 718.319 695.306C736.948 713.935 760.508 723.25 789 723.25Z" fill="#1F1F1F"/>
</svg>
