<svg width="200" height="151" viewBox="0 0 200 151" fill="none" xmlns="http://www.w3.org/2000/svg">
<g opacity="0.2">
<path d="M65.2856 38.5607C69.8098 30.2384 77.5685 23.7532 86.987 20.5973C76.2555 8.0329 59.8496 0 41.464 0V18.4916C41.464 22.4674 41.9053 26.3454 42.744 30.0842C50.7421 31.9248 58.3119 34.8032 65.2856 38.5607Z" fill="#604CC3"/>
<path d="M134.711 38.5621C130.126 30.1285 122.221 23.5813 112.632 20.4733C123.365 7.98005 139.724 0 158.049 0V18.4916C158.049 22.5098 157.598 26.4282 156.742 30.2038C148.932 32.0486 141.536 34.8844 134.711 38.5621Z" fill="#604CC3"/>
<path d="M100 72.7902C93.2969 60.5013 83.4569 49.9982 71.4841 42.2322C76.4385 32.1874 86.235 25.4256 99.9881 25.4256C113.747 25.4256 123.545 32.1928 128.498 42.2441C116.533 50.0089 106.7 60.5075 100 72.7902Z" fill="#604CC3"/>
<path d="M200 36.9828V34.6714H178.049C140.408 34.6714 108.802 59.158 100 92.2394C91.1977 59.158 59.5918 34.6714 21.9512 34.6714H0V36.9828C0 77.9614 34.0976 111.393 76.8715 113.185C74.7929 114.09 72.8452 115.115 71.0527 116.247C63.5546 120.985 58.5366 127.783 58.5366 135.605V150.244H60.9756C72.1663 150.244 82.4078 147.382 89.9229 142.634C94.2908 139.875 97.817 136.416 100 132.462C102.183 136.416 105.709 139.875 110.077 142.634C117.592 147.382 127.834 150.244 139.024 150.244H141.463V135.605C141.463 127.783 136.445 120.985 128.947 116.247C127.155 115.115 125.207 114.09 123.128 113.185C165.902 111.393 200 77.9614 200 36.9828Z" fill="#604CC3"/>
</g>
<mask id="mask0_924_876" style="mask-type:alpha" maskUnits="userSpaceOnUse" x="0" y="0" width="200" height="151">
<path d="M65.2856 38.5607C69.8098 30.2384 77.5685 23.7532 86.987 20.5973C76.2555 8.0329 59.8496 0 41.464 0V18.4916C41.464 22.4674 41.9053 26.3454 42.744 30.0842C50.7421 31.9248 58.3119 34.8032 65.2856 38.5607Z" fill="#604CC3"/>
<path d="M134.711 38.5621C130.126 30.1285 122.221 23.5813 112.632 20.4733C123.365 7.98005 139.724 0 158.049 0V18.4916C158.049 22.5098 157.598 26.4282 156.742 30.2038C148.932 32.0486 141.536 34.8844 134.711 38.5621Z" fill="#604CC3"/>
<path d="M100 72.7902C93.2969 60.5013 83.4569 49.9982 71.4841 42.2322C76.4385 32.1874 86.235 25.4256 99.9881 25.4256C113.747 25.4256 123.545 32.1928 128.498 42.2441C116.533 50.0089 106.7 60.5075 100 72.7902Z" fill="#604CC3"/>
<path d="M200 36.9828V34.6714H178.049C140.408 34.6714 108.802 59.158 100 92.2394C91.1977 59.158 59.5918 34.6714 21.9512 34.6714H0V36.9828C0 77.9614 34.0976 111.393 76.8715 113.185C74.7929 114.09 72.8452 115.115 71.0527 116.247C63.5546 120.985 58.5366 127.783 58.5366 135.605V150.244H60.9756C72.1663 150.244 82.4078 147.382 89.9229 142.634C94.2908 139.875 97.817 136.416 100 132.462C102.183 136.416 105.709 139.875 110.077 142.634C117.592 147.382 127.834 150.244 139.024 150.244H141.463V135.605C141.463 127.783 136.445 120.985 128.947 116.247C127.155 115.115 125.207 114.09 123.128 113.185C165.902 111.393 200 77.9614 200 36.9828Z" fill="#604CC3"/>
</mask>
<g mask="url(#mask0_924_876)">
<rect y="-5" width="200" height="185" fill="#604CC3"/>
<path d="M-820 -9C-803.333 -19.6667 -786.667 -19.6667 -770 -9C-753.333 1.66667 -736.667 1.66667 -720 -9C-703.333 -19.6667 -686.667 -19.6667 -670 -9C-653.333 1.66667 -636.667 1.66667 -620 -9C-603.333 -19.6667 -586.667 -19.6667 -570 -9C-553.333 1.66667 -536.667 1.66667 -520 -9C-503.333 -19.6667 -486.667 -19.6667 -470 -9C-453.333 1.66667 -436.667 1.66667 -420 -9C-403.333 -19.6667 -386.667 -19.6667 -370 -9C-353.333 1.66667 -336.667 1.66667 -320 -9C-303.333 -19.6667 -286.667 -19.6667 -270 -9C-253.333 1.66667 -236.667 1.66667 -220 -9C-203.333 -19.6667 -186.667 -19.6667 -170 -9C-153.333 1.66667 -136.667 1.66667 -120 -9C-103.333 -19.6667 -86.6667 -19.6667 -70 -9C-53.3333 1.66667 -36.6667 1.66667 -20 -9C-3.33333 -19.6667 13.3333 -19.6667 30 -9C46.6667 1.66667 63.3333 1.66667 80 -9C96.6667 -19.6667 113.333 -19.6667 130 -9C146.667 1.66667 163.333 1.66667 180 -9C196.667 -19.6667 213.333 -19.6667 230 -9C246.667 1.66667 263.333 1.66667 280 -9C296.667 -19.6667 313.333 -19.6667 330 -9C346.667 1.66667 363.333 1.66667 380 -9" stroke="#604CC3" stroke-width="25"/>
<path opacity="0.5" d="M-87 -7C-70.3333 -17.6667 -53.6667 -17.6667 -37 -7C-20.3333 3.66667 -3.66667 3.66667 13 -7C29.6667 -17.6667 46.3333 -17.6667 63 -7C79.6667 3.66667 96.3333 3.66667 113 -7C129.667 -17.6667 146.333 -17.6667 163 -7C179.667 3.66667 196.333 3.66667 213 -7C229.667 -17.6667 246.333 -17.6667 263 -7C279.667 3.66667 296.333 3.66667 313 -7C329.667 -17.6667 346.333 -17.6667 363 -7C379.667 3.66667 396.333 3.66667 413 -7C429.667 -17.6667 446.333 -17.6667 463 -7C479.667 3.66667 496.333 3.66667 513 -7C529.667 -17.6667 546.333 -17.6667 563 -7C579.667 3.66667 596.333 3.66667 613 -7C629.667 -17.6667 646.333 -17.6667 663 -7C679.667 3.66667 696.333 3.66667 713 -7C729.667 -17.6667 746.333 -17.6667 763 -7C779.667 3.66667 796.333 3.66667 813 -7C829.667 -17.6667 846.333 -17.6667 863 -7C879.667 3.66667 896.333 3.66667 913 -7C929.667 -17.6667 946.333 -17.6667 963 -7C979.667 3.66667 996.333 3.66667 1013 -7C1029.67 -17.6667 1046.33 -17.6667 1063 -7C1079.67 3.66667 1096.33 3.66667 1113 -7" stroke="#604CC3" stroke-width="25"/>
</g>
</svg>
