<svg width="21" height="22" viewBox="0 0 21 22" fill="none" xmlns="http://www.w3.org/2000/svg">
<path d="M18.7953 11.6875C18.6283 11.4974 18.5362 11.253 18.5362 11C18.5362 10.747 18.6283 10.5026 18.7953 10.3125L20.1286 8.81249C20.2755 8.64861 20.3668 8.44239 20.3892 8.22344C20.4117 8.00448 20.3642 7.78404 20.2536 7.59374L18.1703 3.98958C18.0608 3.79949 17.8941 3.64882 17.694 3.55904C17.4938 3.46926 17.2704 3.44495 17.0557 3.48958L15.0973 3.88541C14.8482 3.9369 14.5887 3.8954 14.3681 3.76874C14.1474 3.64209 13.9807 3.43904 13.8994 3.19791L13.264 1.29166C13.1941 1.08476 13.061 0.90506 12.8834 0.777953C12.7058 0.650846 12.4928 0.582762 12.2744 0.583326H8.10776C7.88061 0.57147 7.65582 0.634291 7.46772 0.762195C7.27963 0.890098 7.13857 1.07605 7.06609 1.29166L6.48276 3.19791C6.40151 3.43904 6.23482 3.64209 6.01413 3.76874C5.79344 3.8954 5.53403 3.9369 5.28484 3.88541L3.27443 3.48958C3.07084 3.46081 2.86328 3.49293 2.67791 3.58191C2.49255 3.67088 2.33766 3.81273 2.23276 3.98958L0.149428 7.59374C0.0360531 7.78192 -0.0149239 8.00112 0.00378494 8.22002C0.0224938 8.43891 0.10993 8.64628 0.253595 8.81249L1.57651 10.3125C1.74351 10.5026 1.83561 10.747 1.83561 11C1.83561 11.253 1.74351 11.4974 1.57651 11.6875L0.253595 13.1875C0.10993 13.3537 0.0224938 13.5611 0.00378494 13.78C-0.0149239 13.9989 0.0360531 14.2181 0.149428 14.4062L2.23276 18.0104C2.34224 18.2005 2.50893 18.3512 2.70907 18.4409C2.9092 18.5307 3.13258 18.555 3.34734 18.5104L5.30568 18.1146C5.55486 18.0631 5.81428 18.1046 6.03496 18.2312C6.25565 18.3579 6.42235 18.5609 6.50359 18.8021L7.13901 20.7083C7.21149 20.9239 7.35255 21.1099 7.54064 21.2378C7.72874 21.3657 7.95353 21.4285 8.18068 21.4167H12.3473C12.5657 21.4172 12.7788 21.3491 12.9563 21.222C13.1339 21.0949 13.267 20.9152 13.3369 20.7083L13.9723 18.8021C14.0536 18.5609 14.2203 18.3579 14.441 18.2312C14.6617 18.1046 14.9211 18.0631 15.1703 18.1146L17.1286 18.5104C17.3434 18.555 17.5667 18.5307 17.7669 18.4409C17.967 18.3512 18.1337 18.2005 18.2432 18.0104L20.3265 14.4062C20.4371 14.2159 20.4846 13.9955 20.4621 13.7765C20.4397 13.5576 20.3484 13.3514 20.2015 13.1875L18.7953 11.6875ZM17.2432 13.0833L18.0765 14.0208L16.7432 16.3333L15.514 16.0833C14.7638 15.93 13.9834 16.0574 13.3209 16.4415C12.6584 16.8255 12.16 17.4394 11.9203 18.1667L11.5244 19.3333H8.85776L8.48276 18.1458C8.24303 17.4186 7.74462 16.8047 7.08214 16.4206C6.41967 16.0366 5.63924 15.9091 4.88901 16.0625L3.65984 16.3125L2.30568 14.0104L3.13901 13.0729C3.65146 12.5 3.93477 11.7583 3.93477 10.9896C3.93477 10.2209 3.65146 9.47918 3.13901 8.90624L2.30568 7.96874L3.63901 5.67708L4.86818 5.92708C5.61841 6.08043 6.39883 5.95299 7.06131 5.56895C7.72378 5.18491 8.22219 4.57099 8.46193 3.84374L8.85776 2.66666H11.5244L11.9203 3.85416C12.16 4.58141 12.6584 5.19532 13.3209 5.57937C13.9834 5.96341 14.7638 6.09085 15.514 5.93749L16.7432 5.68749L18.0765 7.99999L17.2432 8.93749C16.7365 9.50912 16.4567 10.2465 16.4567 11.0104C16.4567 11.7743 16.7365 12.5117 17.2432 13.0833ZM10.1911 6.83333C9.36701 6.83333 8.56142 7.0777 7.87622 7.53554C7.19101 7.99337 6.65696 8.64412 6.3416 9.40548C6.02623 10.1668 5.94372 11.0046 6.10449 11.8129C6.26526 12.6211 6.6621 13.3636 7.24482 13.9463C7.82753 14.529 8.56996 14.9258 9.37822 15.0866C10.1865 15.2474 11.0242 15.1649 11.7856 14.8495C12.547 14.5341 13.1977 14.0001 13.6556 13.3149C14.1134 12.6297 14.3578 11.8241 14.3578 11C14.3578 9.89492 13.9188 8.83512 13.1374 8.05371C12.356 7.27231 11.2962 6.83333 10.1911 6.83333ZM10.1911 13.0833C9.77905 13.0833 9.37626 12.9611 9.03366 12.7322C8.69105 12.5033 8.42403 12.1779 8.26635 11.7972C8.10866 11.4166 8.06741 10.9977 8.14779 10.5936C8.22818 10.1894 8.4266 9.81821 8.71795 9.52685C9.00931 9.23549 9.38053 9.03708 9.78466 8.95669C10.1888 8.8763 10.6077 8.91756 10.9884 9.07524C11.369 9.23293 11.6944 9.49995 11.9233 9.84255C12.1522 10.1852 12.2744 10.5879 12.2744 11C12.2744 11.5525 12.0549 12.0824 11.6642 12.4731C11.2735 12.8638 10.7436 13.0833 10.1911 13.0833Z" fill="black"/>
</svg>
