<svg width="26" height="18" viewBox="0 0 26 18" fill="none" xmlns="http://www.w3.org/2000/svg">
<path d="M23.8757 9.59392C23.6635 9.4297 23.5465 9.21859 23.5465 9C23.5465 8.78141 23.6635 8.5703 23.8757 8.40608L25.5694 7.11026C25.756 6.96868 25.8719 6.79053 25.9005 6.60138C25.929 6.41223 25.8687 6.2218 25.7282 6.0574L23.0817 2.94382C22.9427 2.77961 22.7309 2.64945 22.4767 2.57189C22.2224 2.49433 21.9387 2.47333 21.6659 2.51188L19.1782 2.85384C18.8617 2.89832 18.5321 2.86246 18.2518 2.75305C17.9714 2.64363 17.7597 2.46822 17.6565 2.25992L16.8493 0.613141C16.7605 0.434406 16.5914 0.279164 16.3658 0.169359C16.1403 0.0595529 15.8696 0.000736816 15.5922 0.0012238H10.2993C10.0108 -0.00901865 9.72521 0.0452515 9.48627 0.155745C9.24733 0.266239 9.06815 0.426883 8.97608 0.613141L8.23507 2.25992C8.13186 2.46822 7.9201 2.64363 7.63976 2.75305C7.35943 2.86246 7.02989 2.89832 6.71335 2.85384L4.15951 2.51188C3.90089 2.48703 3.63723 2.51478 3.40176 2.59165C3.16629 2.66851 2.96953 2.79105 2.83628 2.94382L0.189819 6.0574C0.0457984 6.21996 -0.0189579 6.40933 0.00480802 6.59843C0.0285739 6.78753 0.139645 6.96667 0.322142 7.11026L2.00265 8.40608C2.21479 8.5703 2.33178 8.78141 2.33178 9C2.33178 9.21859 2.21479 9.4297 2.00265 9.59392L0.322142 10.8897C0.139645 11.0333 0.0285739 11.2125 0.00480802 11.4016C-0.0189579 11.5907 0.0457984 11.78 0.189819 11.9426L2.83628 15.0562C2.97535 15.2204 3.1871 15.3505 3.44133 15.4281C3.69557 15.5057 3.97932 15.5267 4.25214 15.4881L6.73982 15.1462C7.05636 15.1017 7.38589 15.1375 7.66623 15.2469C7.94657 15.3564 8.15832 15.5318 8.26153 15.7401L9.0687 17.3869C9.16077 17.5731 9.33996 17.7338 9.5789 17.8443C9.81783 17.9547 10.1034 18.009 10.3919 17.9988H15.6849C15.9623 17.9993 16.2329 17.9404 16.4585 17.8306C16.684 17.7208 16.8532 17.5656 16.9419 17.3869L17.7491 15.7401C17.8523 15.5318 18.0641 15.3564 18.3444 15.2469C18.6247 15.1375 18.9543 15.1017 19.2708 15.1462L21.7585 15.4881C22.0313 15.5267 22.3151 15.5057 22.5693 15.4281C22.8235 15.3505 23.0353 15.2204 23.1744 15.0562L25.8208 11.9426C25.9613 11.7782 26.0216 11.5878 25.9931 11.3986C25.9646 11.2095 25.8487 11.0313 25.662 10.8897L23.8757 9.59392ZM21.9041 10.7998L22.9626 11.6096L21.2689 13.6074L19.7075 13.3914C18.7545 13.2589 17.7631 13.369 16.9216 13.7008C16.08 14.0325 15.4469 14.5629 15.1423 15.1912L14.6395 16.199H11.252L10.7757 15.1732C10.4711 14.5449 9.83801 14.0146 8.99646 13.6828C8.15492 13.351 7.16354 13.2409 6.21052 13.3734L4.64911 13.5894L2.92891 11.6006L3.98749 10.7908C4.63846 10.2958 4.99835 9.65505 4.99835 8.991C4.99835 8.32695 4.63846 7.6862 3.98749 7.19125L2.92891 6.38136L4.62265 4.40163L6.18406 4.6176C7.13708 4.75008 8.12845 4.63999 8.97 4.30822C9.81154 3.97645 10.4447 3.4461 10.7492 2.81784L11.252 1.80098H14.6395L15.1423 2.82684C15.4469 3.4551 16.08 3.98545 16.9216 4.31722C17.7631 4.64898 18.7545 4.75908 19.7075 4.62659L21.2689 4.41062L22.9626 6.40835L21.9041 7.21824C21.2604 7.71206 20.905 8.3491 20.905 9.009C20.905 9.6689 21.2604 10.3059 21.9041 10.7998ZM12.9458 5.40049C11.8989 5.40049 10.8756 5.6116 10.0052 6.00712C9.13476 6.40264 8.45636 6.9648 8.05575 7.62253C7.65514 8.28025 7.55032 9.00399 7.75455 9.70223C7.95878 10.4005 8.46288 11.0418 9.20311 11.5452C9.94334 12.0486 10.8864 12.3915 11.9132 12.5303C12.9399 12.6692 14.0041 12.598 14.9713 12.3255C15.9384 12.0531 16.7651 11.5917 17.3467 10.9998C17.9283 10.4078 18.2387 9.71192 18.2387 9C18.2387 8.04535 17.6811 7.1298 16.6884 6.45476C15.6958 5.77972 14.3495 5.40049 12.9458 5.40049ZM12.9458 10.7998C12.4224 10.7998 11.9107 10.6942 11.4755 10.4964C11.0403 10.2987 10.7011 10.0176 10.5008 9.68874C10.3005 9.35987 10.248 8.998 10.3502 8.64889C10.4523 8.29977 10.7043 7.97908 11.0744 7.72738C11.4446 7.47568 11.9161 7.30427 12.4295 7.23483C12.9428 7.16538 13.475 7.20102 13.9585 7.33724C14.4421 7.47346 14.8554 7.70414 15.1462 8.00011C15.437 8.29608 15.5922 8.64404 15.5922 9C15.5922 9.47732 15.3134 9.9351 14.8171 10.2726C14.3208 10.6101 13.6477 10.7998 12.9458 10.7998Z" fill="black"/>
</svg>
