<svg width="87" height="32" viewBox="0 0 87 32" fill="none" xmlns="http://www.w3.org/2000/svg">
<path d="M1.3103 9.13242C4.55039 6.31495 7.79048 6.31495 11.0306 9.13242C14.2707 11.9499 17.5107 11.9499 20.7508 9.13242C23.9909 6.31495 27.231 6.31495 30.4711 9.13242C33.7112 11.9499 36.9513 11.9499 40.1914 9.13242C43.4315 6.31495 46.6716 6.31495 49.9116 9.13242" stroke="#FF0000" stroke-width="1.58483" stroke-linecap="round"/>
<path d="M1.3103 16C4.55039 13.8869 7.79048 13.8869 11.0306 16C14.2707 18.1131 17.5107 18.1131 20.7508 16C23.9909 13.8869 27.231 13.8869 30.4711 16C33.7112 18.1131 36.9513 18.1131 40.1914 16C43.4315 13.8869 46.6716 13.8869 49.9116 16" stroke="#FF0000" stroke-width="1.58483" stroke-linecap="round"/>
<path d="M1.3103 22.8676C4.55039 20.0501 7.79048 20.0501 11.0306 22.8676C14.2707 25.685 17.5107 25.685 20.7508 22.8676C23.9909 20.0501 27.231 20.0501 30.4711 22.8676C33.7112 25.685 36.9513 25.685 40.1914 22.8676C43.4315 20.0501 46.6716 20.0501 49.9116 22.8676" stroke="#FF0000" stroke-width="1.58483" stroke-linecap="round"/>
<g opacity="0.7">
<mask id="path-4-outside-1_102_1137" maskUnits="userSpaceOnUse" x="59.6896" y="6.38805" width="25" height="20" fill="black">
<rect fill="white" x="59.6896" y="6.38805" width="25" height="20"/>
<path d="M60.6908 11.4871C61.0687 11.4852 61.4467 11.4837 61.8246 11.4828C62.0002 11.4824 62.1757 11.4818 62.3513 11.4809C62.5214 11.48 62.6915 11.4795 62.8616 11.4793C62.9258 11.4792 62.99 11.4789 63.0542 11.4784C63.6671 11.4743 64.2769 11.5206 64.8784 11.6425C64.9132 11.6494 64.948 11.6563 64.9838 11.6634C66.3323 11.9388 67.6065 12.5407 68.6809 13.3994C68.7086 13.4214 68.7363 13.4433 68.7649 13.4659C69.2474 13.8539 69.7254 14.2975 70.0989 14.7927C70.1257 14.8267 70.1526 14.8607 70.1795 14.8947C70.9037 15.8158 71.4553 16.8859 71.7664 18.017C71.7818 18.0718 71.7992 18.1261 71.8169 18.1803C71.8349 18.1893 71.8529 18.1983 71.8714 18.2076C71.8765 18.1891 71.8815 18.1706 71.8867 18.1516C72.2297 16.9084 72.7983 15.7632 73.6167 14.7654C73.6292 14.75 73.6418 14.7345 73.6547 14.7186C73.8487 14.4819 74.0591 14.2619 74.2746 14.0448C74.2993 14.0198 74.324 13.9948 74.3495 13.9691C74.515 13.804 74.6883 13.6541 74.8711 13.5087C74.9011 13.484 74.931 13.4592 74.9609 13.4343C75.4051 13.0746 75.8895 12.758 76.3982 12.4979C76.4231 12.4851 76.448 12.4723 76.4736 12.4591C77.2147 12.0815 77.9851 11.8096 78.7997 11.6459C78.8314 11.6394 78.8631 11.6329 78.8957 11.6262C79.5024 11.5098 80.1122 11.4748 80.7286 11.4791C80.7947 11.4792 80.8609 11.4793 80.9271 11.4794C81.0983 11.4797 81.2696 11.4805 81.4408 11.4814C81.6167 11.4823 81.7926 11.4827 81.9685 11.4831C82.3115 11.4839 82.6545 11.4853 82.9975 11.4871C82.9983 11.6009 82.9988 11.7148 82.9992 11.8286C82.9993 11.8672 82.9996 11.9058 82.9998 11.9443C83.0157 14.281 81.9581 16.4968 80.3428 18.1398C80.1363 18.3481 79.9319 18.5495 79.6979 18.7266C79.6639 18.7535 79.6299 18.7805 79.596 18.8074C78.2034 19.9062 76.45 20.6219 74.6722 20.7116C74.5992 20.7208 74.5522 20.7383 74.4893 20.7756C74.5279 20.7954 74.5279 20.7954 74.5673 20.8157C75.3427 21.2193 76.0362 21.7901 76.3437 22.6333C76.442 22.9552 76.4682 23.2688 76.4634 23.6033C76.4632 23.6467 76.4631 23.6901 76.4629 23.7335C76.4625 23.8459 76.4615 23.9582 76.4603 24.0706C76.4591 24.186 76.4586 24.3014 76.4581 24.4168C76.4569 24.6419 76.4551 24.8669 76.4528 25.092C76.3417 25.0929 76.2306 25.0934 76.1196 25.0939C76.0886 25.0942 76.0576 25.0944 76.0257 25.0947C75.0848 25.0977 74.1429 24.8585 73.3167 24.409C73.3005 24.4004 73.2842 24.3919 73.2674 24.383C72.7149 24.0918 72.1369 23.6247 71.8714 23.0431C71.8534 23.0431 71.8354 23.0431 71.8169 23.0431C71.7779 23.1004 71.7417 23.1578 71.7061 23.2172C71.5955 23.3954 71.4722 23.548 71.326 23.6987C71.3083 23.7185 71.2906 23.7382 71.2724 23.7586C70.4695 24.6233 69.0874 25.0346 67.9446 25.092C67.8213 25.0941 67.698 25.0938 67.5746 25.0932C67.5256 25.0931 67.5256 25.0931 67.4755 25.0929C67.3955 25.0927 67.3156 25.0924 67.2356 25.092C67.2337 24.8462 67.2322 24.6004 67.2313 24.3545C67.2309 24.2403 67.2303 24.1262 67.2294 24.012C67.2285 23.9014 67.228 23.7909 67.2278 23.6804C67.2277 23.6385 67.2274 23.5967 67.2269 23.5549C67.2187 22.7571 67.5143 22.1161 68.0673 21.5422C68.3549 21.2538 68.7035 21.0424 69.06 20.8505C69.1442 20.808 69.1442 20.808 69.199 20.7483C69.165 20.7442 69.165 20.7442 69.1304 20.7402C69.0329 20.7283 68.9355 20.7159 68.8381 20.7033C68.7855 20.6966 68.7329 20.6899 68.6803 20.6834C67.7045 20.5611 66.7649 20.3187 65.8721 19.9014C65.8361 19.8846 65.8361 19.8846 65.7994 19.8675C65.2326 19.5999 64.6997 19.2807 64.2086 18.8906C64.1843 18.8716 64.1599 18.8527 64.1348 18.8331C64.0677 18.7804 64.0017 18.7264 63.9359 18.672C63.8962 18.6398 63.8962 18.6398 63.8556 18.6069C63.6412 18.4301 63.4424 18.2381 63.2457 18.042C63.2206 18.0171 63.1956 17.9923 63.1697 17.9667C63.0045 17.8004 62.8543 17.6264 62.7088 17.4426C62.6834 17.4117 62.6581 17.3807 62.6326 17.3498C61.4015 15.8166 60.6811 13.8489 60.6897 11.8788C60.6897 11.8407 60.6898 11.8025 60.6899 11.7643C60.6901 11.6719 60.6904 11.5795 60.6908 11.4871Z"/>
<path d="M72.7986 10.5036C72.8182 10.5092 72.8379 10.5147 72.8581 10.5205C73.3292 10.6594 73.7617 10.8952 74.1348 11.2139C74.1605 11.2352 74.1862 11.2564 74.2126 11.2783C74.5393 11.5605 74.8568 11.9519 75.0075 12.3613C74.9791 12.3824 74.9508 12.4035 74.9216 12.4253C74.7111 12.5827 74.5011 12.7402 74.2984 12.9077C74.2726 12.9285 74.2467 12.9494 74.22 12.9708C73.9946 13.1559 73.7873 13.3592 73.5809 13.565C73.567 13.5789 73.553 13.5927 73.5386 13.607C73.3518 13.7927 73.1809 13.9852 73.0168 14.1917C72.9742 14.2413 72.9317 14.2908 72.8889 14.3402C72.4937 14.8169 72.1437 15.3566 71.8714 15.9128C71.8534 15.9128 71.8354 15.9128 71.8169 15.9128C71.8049 15.8878 71.7929 15.8628 71.7805 15.8371C71.5198 15.3133 71.18 14.8066 70.8079 14.3556C70.796 14.3411 70.784 14.3265 70.7717 14.3116C70.5167 14.0028 70.2487 13.7085 69.966 13.425C69.941 13.3997 69.916 13.3743 69.8902 13.3481C69.7229 13.1802 69.5483 13.0276 69.3626 12.8804C69.3262 12.8507 69.2898 12.8211 69.2534 12.7914C69.0673 12.6407 68.88 12.4946 68.6809 12.3613C68.9075 11.8574 69.2505 11.4392 69.6899 11.1046C69.7101 11.0887 69.7303 11.0728 69.7512 11.0565C70.2024 10.7198 70.7209 10.5207 71.2715 10.4216C71.299 10.4166 71.3264 10.4116 71.3547 10.4064C71.8362 10.3525 72.332 10.3702 72.7986 10.5036Z"/>
<path d="M65.3267 7.38921C65.3914 7.38885 65.4561 7.38859 65.5208 7.38839C65.5389 7.38828 65.557 7.38817 65.5757 7.38805C65.7399 7.38767 65.9002 7.40094 66.063 7.42165C66.1065 7.42713 66.1065 7.42713 66.151 7.43273C67.6936 7.63789 69.297 8.41505 70.271 9.66523C70.2957 9.69861 70.3203 9.7321 70.3443 9.76597C70.2522 9.84391 70.1515 9.88517 70.041 9.92989C69.6332 10.1028 69.2804 10.3431 68.9536 10.6402C68.9141 10.6744 68.9141 10.6744 68.8738 10.7092C68.5058 11.032 68.2125 11.4443 67.9719 11.8695C67.833 11.8539 67.7271 11.7875 67.6071 11.721C67.0891 11.4428 66.5519 11.2411 65.9944 11.0595C65.9767 11.0536 65.9591 11.0478 65.9409 11.0418C65.8119 10.9999 65.6828 10.9709 65.5488 10.9505C65.448 10.8865 65.4352 10.7793 65.4085 10.6675C65.2699 10.0409 65.3171 9.3716 65.3211 8.73454C65.3219 8.5825 65.3223 8.43046 65.3227 8.27841C65.3236 7.98201 65.325 7.68561 65.3267 7.38921Z"/>
<path d="M78.1124 7.38853C78.1312 7.38858 78.15 7.38863 78.1693 7.38868C78.2153 7.38881 78.2612 7.389 78.3071 7.38921C78.309 7.71936 78.3105 8.04951 78.3113 8.37967C78.3118 8.53305 78.3123 8.68643 78.3133 8.83981C78.3213 10.1926 78.3213 10.1926 78.2253 10.6948C78.2222 10.7155 78.2191 10.7362 78.2159 10.7575C78.2052 10.8168 78.2052 10.8168 78.1708 10.9134C78.1011 10.9573 78.1011 10.9573 78.0126 10.9808C77.98 10.9901 77.9475 10.9993 77.9139 11.0089C77.8966 11.0133 77.8793 11.0178 77.8614 11.0224C77.7886 11.0413 77.7165 11.0622 77.6443 11.0831C77.6078 11.0936 77.5713 11.104 77.5347 11.1143C76.9549 11.2788 76.3823 11.5372 75.8608 11.8383C75.7983 11.8695 75.7983 11.8695 75.7165 11.8695C75.6758 11.8093 75.6406 11.7504 75.6057 11.6868C75.3314 11.2107 74.9587 10.7764 74.5166 10.4489C74.4895 10.4289 74.4625 10.4088 74.4346 10.3881C74.0849 10.1376 73.7202 9.94138 73.3167 9.79329C73.3328 9.70333 73.3605 9.65639 73.4227 9.59021C73.4391 9.57267 73.4555 9.55512 73.4724 9.53704C73.4902 9.51849 73.508 9.49994 73.5264 9.48083C73.5448 9.46147 73.5632 9.44211 73.5822 9.42216C74.748 8.20778 76.4069 7.38007 78.1124 7.38853Z"/>
</mask>
<path d="M60.6908 11.4871C61.0687 11.4852 61.4467 11.4837 61.8246 11.4828C62.0002 11.4824 62.1757 11.4818 62.3513 11.4809C62.5214 11.48 62.6915 11.4795 62.8616 11.4793C62.9258 11.4792 62.99 11.4789 63.0542 11.4784C63.6671 11.4743 64.2769 11.5206 64.8784 11.6425C64.9132 11.6494 64.948 11.6563 64.9838 11.6634C66.3323 11.9388 67.6065 12.5407 68.6809 13.3994C68.7086 13.4214 68.7363 13.4433 68.7649 13.4659C69.2474 13.8539 69.7254 14.2975 70.0989 14.7927C70.1257 14.8267 70.1526 14.8607 70.1795 14.8947C70.9037 15.8158 71.4553 16.8859 71.7664 18.017C71.7818 18.0718 71.7992 18.1261 71.8169 18.1803C71.8349 18.1893 71.8529 18.1983 71.8714 18.2076C71.8765 18.1891 71.8815 18.1706 71.8867 18.1516C72.2297 16.9084 72.7983 15.7632 73.6167 14.7654C73.6292 14.75 73.6418 14.7345 73.6547 14.7186C73.8487 14.4819 74.0591 14.2619 74.2746 14.0448C74.2993 14.0198 74.324 13.9948 74.3495 13.9691C74.515 13.804 74.6883 13.6541 74.8711 13.5087C74.9011 13.484 74.931 13.4592 74.9609 13.4343C75.4051 13.0746 75.8895 12.758 76.3982 12.4979C76.4231 12.4851 76.448 12.4723 76.4736 12.4591C77.2147 12.0815 77.9851 11.8096 78.7997 11.6459C78.8314 11.6394 78.8631 11.6329 78.8957 11.6262C79.5024 11.5098 80.1122 11.4748 80.7286 11.4791C80.7947 11.4792 80.8609 11.4793 80.9271 11.4794C81.0983 11.4797 81.2696 11.4805 81.4408 11.4814C81.6167 11.4823 81.7926 11.4827 81.9685 11.4831C82.3115 11.4839 82.6545 11.4853 82.9975 11.4871C82.9983 11.6009 82.9988 11.7148 82.9992 11.8286C82.9993 11.8672 82.9996 11.9058 82.9998 11.9443C83.0157 14.281 81.9581 16.4968 80.3428 18.1398C80.1363 18.3481 79.9319 18.5495 79.6979 18.7266C79.6639 18.7535 79.6299 18.7805 79.596 18.8074C78.2034 19.9062 76.45 20.6219 74.6722 20.7116C74.5992 20.7208 74.5522 20.7383 74.4893 20.7756C74.5279 20.7954 74.5279 20.7954 74.5673 20.8157C75.3427 21.2193 76.0362 21.7901 76.3437 22.6333C76.442 22.9552 76.4682 23.2688 76.4634 23.6033C76.4632 23.6467 76.4631 23.6901 76.4629 23.7335C76.4625 23.8459 76.4615 23.9582 76.4603 24.0706C76.4591 24.186 76.4586 24.3014 76.4581 24.4168C76.4569 24.6419 76.4551 24.8669 76.4528 25.092C76.3417 25.0929 76.2306 25.0934 76.1196 25.0939C76.0886 25.0942 76.0576 25.0944 76.0257 25.0947C75.0848 25.0977 74.1429 24.8585 73.3167 24.409C73.3005 24.4004 73.2842 24.3919 73.2674 24.383C72.7149 24.0918 72.1369 23.6247 71.8714 23.0431C71.8534 23.0431 71.8354 23.0431 71.8169 23.0431C71.7779 23.1004 71.7417 23.1578 71.7061 23.2172C71.5955 23.3954 71.4722 23.548 71.326 23.6987C71.3083 23.7185 71.2906 23.7382 71.2724 23.7586C70.4695 24.6233 69.0874 25.0346 67.9446 25.092C67.8213 25.0941 67.698 25.0938 67.5746 25.0932C67.5256 25.0931 67.5256 25.0931 67.4755 25.0929C67.3955 25.0927 67.3156 25.0924 67.2356 25.092C67.2337 24.8462 67.2322 24.6004 67.2313 24.3545C67.2309 24.2403 67.2303 24.1262 67.2294 24.012C67.2285 23.9014 67.228 23.7909 67.2278 23.6804C67.2277 23.6385 67.2274 23.5967 67.2269 23.5549C67.2187 22.7571 67.5143 22.1161 68.0673 21.5422C68.3549 21.2538 68.7035 21.0424 69.06 20.8505C69.1442 20.808 69.1442 20.808 69.199 20.7483C69.165 20.7442 69.165 20.7442 69.1304 20.7402C69.0329 20.7283 68.9355 20.7159 68.8381 20.7033C68.7855 20.6966 68.7329 20.6899 68.6803 20.6834C67.7045 20.5611 66.7649 20.3187 65.8721 19.9014C65.8361 19.8846 65.8361 19.8846 65.7994 19.8675C65.2326 19.5999 64.6997 19.2807 64.2086 18.8906C64.1843 18.8716 64.1599 18.8527 64.1348 18.8331C64.0677 18.7804 64.0017 18.7264 63.9359 18.672C63.8962 18.6398 63.8962 18.6398 63.8556 18.6069C63.6412 18.4301 63.4424 18.2381 63.2457 18.042C63.2206 18.0171 63.1956 17.9923 63.1697 17.9667C63.0045 17.8004 62.8543 17.6264 62.7088 17.4426C62.6834 17.4117 62.6581 17.3807 62.6326 17.3498C61.4015 15.8166 60.6811 13.8489 60.6897 11.8788C60.6897 11.8407 60.6898 11.8025 60.6899 11.7643C60.6901 11.6719 60.6904 11.5795 60.6908 11.4871Z" stroke="#FF0000" stroke-width="1.41653" mask="url(#path-4-outside-1_102_1137)"/>
<path d="M72.7986 10.5036C72.8182 10.5092 72.8379 10.5147 72.8581 10.5205C73.3292 10.6594 73.7617 10.8952 74.1348 11.2139C74.1605 11.2352 74.1862 11.2564 74.2126 11.2783C74.5393 11.5605 74.8568 11.9519 75.0075 12.3613C74.9791 12.3824 74.9508 12.4035 74.9216 12.4253C74.7111 12.5827 74.5011 12.7402 74.2984 12.9077C74.2726 12.9285 74.2467 12.9494 74.22 12.9708C73.9946 13.1559 73.7873 13.3592 73.5809 13.565C73.567 13.5789 73.553 13.5927 73.5386 13.607C73.3518 13.7927 73.1809 13.9852 73.0168 14.1917C72.9742 14.2413 72.9317 14.2908 72.8889 14.3402C72.4937 14.8169 72.1437 15.3566 71.8714 15.9128C71.8534 15.9128 71.8354 15.9128 71.8169 15.9128C71.8049 15.8878 71.7929 15.8628 71.7805 15.8371C71.5198 15.3133 71.18 14.8066 70.8079 14.3556C70.796 14.3411 70.784 14.3265 70.7717 14.3116C70.5167 14.0028 70.2487 13.7085 69.966 13.425C69.941 13.3997 69.916 13.3743 69.8902 13.3481C69.7229 13.1802 69.5483 13.0276 69.3626 12.8804C69.3262 12.8507 69.2898 12.8211 69.2534 12.7914C69.0673 12.6407 68.88 12.4946 68.6809 12.3613C68.9075 11.8574 69.2505 11.4392 69.6899 11.1046C69.7101 11.0887 69.7303 11.0728 69.7512 11.0565C70.2024 10.7198 70.7209 10.5207 71.2715 10.4216C71.299 10.4166 71.3264 10.4116 71.3547 10.4064C71.8362 10.3525 72.332 10.3702 72.7986 10.5036Z" stroke="#FF0000" stroke-width="1.41653" mask="url(#path-4-outside-1_102_1137)"/>
<path d="M65.3267 7.38921C65.3914 7.38885 65.4561 7.38859 65.5208 7.38839C65.5389 7.38828 65.557 7.38817 65.5757 7.38805C65.7399 7.38767 65.9002 7.40094 66.063 7.42165C66.1065 7.42713 66.1065 7.42713 66.151 7.43273C67.6936 7.63789 69.297 8.41505 70.271 9.66523C70.2957 9.69861 70.3203 9.7321 70.3443 9.76597C70.2522 9.84391 70.1515 9.88517 70.041 9.92989C69.6332 10.1028 69.2804 10.3431 68.9536 10.6402C68.9141 10.6744 68.9141 10.6744 68.8738 10.7092C68.5058 11.032 68.2125 11.4443 67.9719 11.8695C67.833 11.8539 67.7271 11.7875 67.6071 11.721C67.0891 11.4428 66.5519 11.2411 65.9944 11.0595C65.9767 11.0536 65.9591 11.0478 65.9409 11.0418C65.8119 10.9999 65.6828 10.9709 65.5488 10.9505C65.448 10.8865 65.4352 10.7793 65.4085 10.6675C65.2699 10.0409 65.3171 9.3716 65.3211 8.73454C65.3219 8.5825 65.3223 8.43046 65.3227 8.27841C65.3236 7.98201 65.325 7.68561 65.3267 7.38921Z" stroke="#FF0000" stroke-width="1.41653" mask="url(#path-4-outside-1_102_1137)"/>
<path d="M78.1124 7.38853C78.1312 7.38858 78.15 7.38863 78.1693 7.38868C78.2153 7.38881 78.2612 7.389 78.3071 7.38921C78.309 7.71936 78.3105 8.04951 78.3113 8.37967C78.3118 8.53305 78.3123 8.68643 78.3133 8.83981C78.3213 10.1926 78.3213 10.1926 78.2253 10.6948C78.2222 10.7155 78.2191 10.7362 78.2159 10.7575C78.2052 10.8168 78.2052 10.8168 78.1708 10.9134C78.1011 10.9573 78.1011 10.9573 78.0126 10.9808C77.98 10.9901 77.9475 10.9993 77.9139 11.0089C77.8966 11.0133 77.8793 11.0178 77.8614 11.0224C77.7886 11.0413 77.7165 11.0622 77.6443 11.0831C77.6078 11.0936 77.5713 11.104 77.5347 11.1143C76.9549 11.2788 76.3823 11.5372 75.8608 11.8383C75.7983 11.8695 75.7983 11.8695 75.7165 11.8695C75.6758 11.8093 75.6406 11.7504 75.6057 11.6868C75.3314 11.2107 74.9587 10.7764 74.5166 10.4489C74.4895 10.4289 74.4625 10.4088 74.4346 10.3881C74.0849 10.1376 73.7202 9.94138 73.3167 9.79329C73.3328 9.70333 73.3605 9.65639 73.4227 9.59021C73.4391 9.57267 73.4555 9.55512 73.4724 9.53704C73.4902 9.51849 73.508 9.49994 73.5264 9.48083C73.5448 9.46147 73.5632 9.44211 73.5822 9.42216C74.748 8.20778 76.4069 7.38007 78.1124 7.38853Z" stroke="#FF0000" stroke-width="1.41653" mask="url(#path-4-outside-1_102_1137)"/>
</g>
<circle opacity="0.7" cx="71.8275" cy="16" r="14.3904" stroke="#FF0000" stroke-width="1.35714"/>
</svg>
